<svg width="67" height="133" viewBox="0 0 67 133" fill="none" xmlns="http://www.w3.org/2000/svg">
<path d="M55.2522 132.807C53.8452 132.811 52.455 132.501 51.1838 131.898C49.9125 131.295 48.7926 130.415 47.9062 129.322L2.41738 72.8142C1.03217 71.1291 0.274902 69.0153 0.274902 66.8338C0.274902 64.6524 1.03217 62.5386 2.41738 60.8534L49.5072 4.34562C51.1058 2.42232 53.4029 1.21282 55.8933 0.983211C58.3837 0.753604 60.8632 1.52269 62.7865 3.12128C64.7098 4.71988 65.9193 7.01703 66.1489 9.50738C66.3785 11.9977 65.6095 14.4773 64.0109 16.4006L21.9126 66.8809L62.5982 117.361C63.7498 118.744 64.4814 120.427 64.7063 122.212C64.9312 123.997 64.64 125.81 63.8672 127.434C63.0944 129.059 61.8723 130.429 60.3456 131.381C58.8188 132.333 57.0513 132.828 55.2522 132.807Z" fill="#D09A47"/>
</svg>
