<svg width="68" height="133" viewBox="0 0 68 133" fill="none" xmlns="http://www.w3.org/2000/svg">
<path d="M10.2402 132.127C8.03968 132.131 5.90711 131.365 4.21271 129.961C3.25906 129.17 2.47076 128.199 1.89295 127.103C1.31513 126.008 0.95917 124.809 0.84544 123.575C0.73171 122.342 0.86245 121.098 1.23017 119.915C1.59789 118.732 2.19536 117.633 2.98837 116.681L45.1809 66.2011L4.49525 15.6266C3.71294 14.6633 3.12872 13.5548 2.77619 12.365C2.42366 11.1751 2.30976 9.92732 2.44104 8.6933C2.57232 7.45928 2.94619 6.26337 3.54115 5.17431C4.13612 4.08525 4.94046 3.1245 5.90794 2.34731C6.88238 1.48993 8.02352 0.843222 9.25974 0.447771C10.496 0.0523193 11.8006 -0.0833343 13.0917 0.0493167C14.3829 0.181968 15.6326 0.580063 16.7626 1.21862C17.8926 1.85717 18.8784 2.7224 19.6582 3.76L65.1469 60.2678C66.5322 61.953 67.2894 64.0668 67.2894 66.2482C67.2894 68.4296 66.5322 70.5434 65.1469 72.2286L18.0571 128.736C17.1123 129.876 15.9122 130.777 14.554 131.366C13.1958 131.955 11.7179 132.216 10.2402 132.127Z" fill="#D09A47"/>
</svg>
