<svg width="76" height="51" viewBox="0 0 76 51" fill="none" xmlns="http://www.w3.org/2000/svg">
<path opacity="0.8" d="M1.73908 2.75128C0.942198 4.02558 0.50723 5.6294 0.50967 7.28434C0.459154 8.39569 0.607067 9.50717 0.941408 10.5286C1.27575 11.55 1.78711 12.4526 2.43398 13.1632L34.5057 48.5777C35.4622 49.6195 36.6619 50.189 37.9 50.189C39.1381 50.189 40.3378 49.6195 41.2942 48.5777L73.366 14.3672C73.9549 13.7808 74.4459 13.0394 74.8084 12.1896C75.1708 11.3398 75.3967 10.3999 75.472 9.42886C75.5473 8.45785 75.4703 7.47668 75.2459 6.54697C75.0214 5.61725 74.6544 4.75904 74.1678 4.0262C73.7266 3.2986 73.1814 2.69368 72.5633 2.24623C71.9451 1.79877 71.2664 1.5176 70.566 1.41887C69.8656 1.32014 69.1574 1.4058 68.4821 1.67093C67.8068 1.93605 67.1777 2.37542 66.6309 2.96377L37.9267 33.5619L9.27594 1.8305C8.73581 1.2341 8.11219 0.784769 7.4408 0.50822C6.76942 0.231672 6.06345 0.133347 5.36334 0.218879C4.66323 0.304411 3.98274 0.572119 3.36083 1.00667C2.73892 1.44122 2.18781 2.03407 1.73908 2.75128Z" fill="#D09A47"/>
</svg>
