<svg width="48" height="51" viewBox="0 0 48 51" fill="none" xmlns="http://www.w3.org/2000/svg">
<g clip-path="url(#clip0_7012_823)">
<path d="M33.131 0.189289C33.0893 0.190877 33.0479 0.198619 33.0078 0.212343C22.7347 3.72194 11.8142 6.96625 1.30305 9.10974C1.23225 9.12412 1.16474 9.15634 1.10487 9.20432C1.04501 9.25231 0.994122 9.31498 0.95551 9.38829C0.916899 9.4616 0.891421 9.54391 0.880725 9.6299C0.870029 9.7159 0.874354 9.80365 0.893418 9.88749C0.894678 9.89358 0.896013 9.89965 0.897424 9.90569C6.42458 36.0558 7.2491 44.8197 7.92222 49.179C8.02888 49.8692 8.5805 50.3103 9.1461 50.1593C19.9208 47.2812 32.1857 44.2413 42.3922 39.9431C45.0459 38.8255 46.3708 37.142 46.4805 36.2666C46.5673 35.5744 45.1272 33.7614 44.0337 32.7443C45.3079 31.1733 46.367 29.373 47.0854 27.2819C47.1156 27.1944 47.1288 27.0998 47.1241 27.0052C47.1194 26.9107 47.0969 26.8186 47.0583 26.7362C47.0198 26.6538 46.9661 26.5831 46.9016 26.5296C46.837 26.4762 46.7632 26.4413 46.6858 26.4277C44.5061 26.046 42.1635 23.8392 40.979 21.4943C40.4029 20.3537 39.3653 17.4413 38.0916 13.6889C36.8179 9.93645 35.2846 5.30709 33.6197 0.567851C33.5793 0.452353 33.511 0.354374 33.4238 0.286805C33.3365 0.219235 33.2345 0.185239 33.131 0.189289ZM32.8435 1.54823C34.4311 6.08587 35.9148 10.5433 37.1431 14.1621C38.4195 17.9225 39.4168 20.7823 40.1037 22.1422C41.3293 24.5687 43.5182 26.7096 45.8756 27.4226C43.7066 32.9567 38.8306 36.409 33.9613 38.8304C26.3829 42.5986 17.7233 45.1896 9.6669 47.4451C7.51019 35.0122 5.10773 22.3775 2.03718 10.2078C12.2791 8.08446 22.8551 4.94727 32.8435 1.54823ZM30.4248 8.56616C30.3955 8.56759 30.3664 8.57205 30.3377 8.57951C29.081 8.87658 27.8509 9.33042 26.671 9.9336C26.5457 9.99763 26.4464 10.1194 26.3952 10.2721C26.3439 10.4248 26.3448 10.5959 26.3976 10.7477C26.4505 10.8996 26.551 11.0199 26.677 11.082C26.803 11.1441 26.9443 11.143 27.0697 11.079C28.184 10.5093 29.3477 10.0796 30.535 9.79891C30.6633 9.77177 30.7783 9.6865 30.8566 9.56042C30.9349 9.43434 30.9706 9.27688 30.9566 9.12001C30.9426 8.96314 30.8798 8.81861 30.7811 8.71575C30.6823 8.61289 30.5549 8.55941 30.4248 8.56616ZM23.1807 10.4286C22.8799 10.4165 22.5836 10.4416 22.2913 10.4942C21.7067 10.5992 21.1397 10.812 20.5927 11.0487C19.4988 11.5219 18.4544 12.0933 17.4529 12.2741C16.4745 12.4509 15.2574 12.2413 14.0977 12.9148C13.4668 13.2816 13.0448 13.6883 12.7136 13.6755C12.7133 13.6755 12.7129 13.6755 12.7126 13.6755C12.5758 13.6705 12.3613 13.5791 12.0546 13.5032C10.5588 13.1352 9.27077 14.2779 8.26675 15.2128C8.21334 15.2626 8.16854 15.3247 8.13492 15.3954C8.1013 15.4662 8.07951 15.5443 8.07081 15.6252C8.0621 15.7062 8.06665 15.7884 8.08419 15.8673C8.10172 15.9461 8.13191 16.02 8.17302 16.0847C8.21412 16.1494 8.26535 16.2036 8.32377 16.2444C8.38218 16.2851 8.44665 16.3114 8.51348 16.322C8.58031 16.3325 8.6482 16.327 8.71327 16.3057C8.77834 16.2845 8.83932 16.2479 8.89271 16.1981C9.86601 15.2917 10.9021 14.4869 11.8503 14.7202C12.041 14.7674 12.3107 14.9044 12.6815 14.918C13.5373 14.9505 14.1018 14.2902 14.5414 14.0347C15.3437 13.5688 16.4298 13.7154 17.6041 13.5032C18.805 13.2864 19.9029 12.6662 20.9382 12.2183C21.9736 11.7704 22.916 11.4976 23.8367 11.7888C23.9029 11.8136 23.9725 11.8219 24.0415 11.8132C24.1104 11.8045 24.1771 11.7789 24.2376 11.7381C24.2982 11.6972 24.3513 11.642 24.3937 11.5756C24.4361 11.5092 24.467 11.4331 24.4845 11.3519C24.5019 11.2707 24.5056 11.186 24.4954 11.103C24.4851 11.02 24.461 10.9404 24.4246 10.8689C24.3882 10.7975 24.3403 10.7357 24.2836 10.6874C24.227 10.639 24.1629 10.6051 24.0951 10.5876C23.7866 10.49 23.4814 10.4407 23.1807 10.4286ZM31.4504 14.122C31.4383 14.1227 31.4263 14.1239 31.4143 14.1257C30.556 14.2406 29.6968 14.3553 28.8384 14.4703C28.8384 14.4707 28.8384 14.4711 28.8384 14.4715C28.579 14.5063 28.2857 14.5419 27.976 14.6571C27.5982 14.7975 27.3029 15.0121 27.0446 15.1582C27.0443 15.1582 27.0439 15.1582 27.0436 15.1582C26.5773 15.4227 26.0531 15.6039 25.5042 15.7916C23.9443 16.3238 22.4034 16.8445 20.8551 16.9867C19.4001 17.1197 17.6528 16.9076 16.1899 18.0593C15.7532 18.4033 15.3868 18.816 15.0492 19.0967C14.7119 19.3771 14.4484 19.5087 14.1678 19.4668C14.0057 19.4423 13.7696 19.3095 13.4297 19.2059C12.0026 18.7725 10.7576 19.8932 9.81713 20.793C9.76275 20.8428 9.71712 20.9053 9.68292 20.9768C9.64872 21.0483 9.62664 21.1273 9.61796 21.2093C9.60928 21.2913 9.61418 21.3745 9.63238 21.4541C9.65057 21.5337 9.6817 21.6082 9.72393 21.6731C9.76616 21.7379 9.81865 21.792 9.87833 21.832C9.938 21.872 10.0037 21.8972 10.0715 21.906C10.1393 21.9149 10.2079 21.9073 10.2732 21.8837C10.3386 21.8601 10.3994 21.8209 10.4521 21.7685C11.3553 20.9043 12.3278 20.153 13.1793 20.4108C13.3778 20.4712 13.6521 20.6408 14.0406 20.6995C14.6679 20.7939 15.2036 20.4765 15.6301 20.122C16.0565 19.7675 16.4189 19.3602 16.7488 19.1004C17.8311 18.2482 19.3609 18.3694 20.9332 18.2255C22.6172 18.0708 24.2221 17.5204 25.7827 16.9879C26.3312 16.8004 26.9108 16.6049 27.4783 16.283V16.2842C27.7933 16.106 28.0502 15.9294 28.2775 15.845C28.4652 15.7751 28.693 15.7402 28.9515 15.7054C29.8099 15.5905 30.6681 15.4758 31.5265 15.3609C31.6598 15.345 31.7827 15.2667 31.869 15.1425C31.9552 15.0183 31.9979 14.8582 31.988 14.6964C31.978 14.5346 31.9162 14.3839 31.8158 14.2765C31.7153 14.1692 31.5842 14.1138 31.4504 14.122ZM29.1889 21.1545C29.143 21.154 29.0971 21.1609 29.0527 21.1752C28.075 21.4652 27.0963 21.7549 26.1182 22.0451C25.8311 22.13 25.4872 22.2244 25.1477 22.471C24.9153 22.6397 24.7734 22.7927 24.682 22.8471C24.6817 22.8471 24.6813 22.8471 24.681 22.8471C24.5 22.9553 24.2509 22.9499 23.8908 22.8872C23.5309 22.8245 23.0884 22.7006 22.5858 22.8156H22.5848C22.0329 22.9419 21.6465 23.2956 21.3268 23.4914C20.6085 23.9314 19.7394 24.039 18.9622 23.785C18.5459 23.6491 17.9966 23.3072 17.3076 23.4332C16.5927 23.5643 16.1311 24.1389 15.7543 24.513C14.5562 25.7028 13.0484 26.4455 11.5047 26.6048C11.4363 26.6096 11.3693 26.6309 11.3078 26.6675C11.2463 26.7042 11.1915 26.7554 11.1465 26.8181C11.1016 26.8809 11.0676 26.9539 11.0464 27.0329C11.0251 27.1118 11.0172 27.1952 11.023 27.2779C11.0289 27.3607 11.0483 27.4412 11.0803 27.5146C11.1122 27.5881 11.156 27.6531 11.209 27.7057C11.2621 27.7584 11.3233 27.7976 11.389 27.8211C11.4548 27.8445 11.5237 27.8518 11.5919 27.8424C13.3461 27.6614 15.0426 26.826 16.4043 25.474C16.8222 25.0592 17.1595 24.7176 17.4609 24.6623C17.7504 24.6094 18.1562 24.8091 18.6948 24.985C19.7236 25.3212 20.8383 25.183 21.7895 24.6004C22.206 24.3453 22.5163 24.0953 22.7751 24.0362C22.7754 24.0362 22.7757 24.0362 22.7761 24.0362C23.0119 23.9821 23.3454 24.0479 23.7455 24.1175C24.1457 24.1871 24.6408 24.256 25.1347 23.961C25.4029 23.8009 25.5636 23.6167 25.6745 23.5363C25.6748 23.5363 25.6752 23.5363 25.6755 23.5363C25.8406 23.4164 26.0774 23.3352 26.3616 23.2512C26.3619 23.2512 26.3622 23.2512 26.3626 23.2512C27.3403 22.9611 28.318 22.6714 29.2961 22.3812C29.4182 22.3472 29.5258 22.2601 29.5986 22.1365C29.6714 22.0129 29.7043 21.8613 29.6911 21.7104C29.6779 21.5594 29.6195 21.4195 29.527 21.3171C29.4345 21.2147 29.3142 21.1569 29.1889 21.1545ZM35.2402 25.1513C35.194 25.1498 35.1479 25.1559 35.103 25.1695C31.0448 26.3187 26.9875 27.4667 22.9293 28.6153C22.929 28.6153 22.9286 28.6153 22.9283 28.6153C21.7089 28.9606 20.3926 29.3277 19.2566 30.2691C18.4034 30.9757 17.762 31.7753 17.0843 31.8307C16.7859 31.855 16.4507 31.7438 16.0577 31.5844C15.6647 31.425 15.221 31.219 14.7006 31.1828C13.5198 31.1005 12.4063 32.0299 12.0506 33.3971C12.0303 33.4749 12.0229 33.5569 12.0287 33.6382C12.0346 33.7195 12.0536 33.7986 12.0847 33.871C12.1158 33.9434 12.1584 34.0077 12.21 34.0602C12.2616 34.1126 12.3213 34.1523 12.3855 34.1768C12.4498 34.2014 12.5174 34.2103 12.5845 34.2032C12.6517 34.1961 12.717 34.173 12.7767 34.1353C12.8365 34.0976 12.8895 34.046 12.9328 33.9835C12.9761 33.9209 13.0088 33.8487 13.0291 33.7708C13.2323 32.9897 13.9671 32.3758 14.6416 32.4228C14.9596 32.4449 15.3203 32.5955 15.7322 32.7625C16.1442 32.9296 16.6139 33.1147 17.1534 33.0707C18.3597 32.9721 19.1299 31.8787 19.8355 31.2944C20.7638 30.5251 21.9456 30.1693 23.1616 29.825C27.2199 28.6764 31.2781 27.5284 35.3364 26.3792C35.4587 26.3466 35.567 26.261 35.6408 26.1384C35.7145 26.0158 35.7487 25.8647 35.7369 25.7137C35.7251 25.5626 35.668 25.422 35.5765 25.3184C35.485 25.2148 35.3654 25.1554 35.2402 25.1513Z" fill="#D09A47"/>
</g>
<defs>
<clipPath id="clip0_7012_823">
<rect width="46.25" height="50" fill="white" transform="translate(0.875 0.188965)"/>
</clipPath>
</defs>
</svg>
