<?xml version="1.0" encoding="UTF-8"?>
<!-- Generator: visioncortex VTracer -->
<svg id="svg" width="32" height="32" display="block" version="1.1" viewBox="0 0 32 32" xmlns="http://www.w3.org/2000/svg">
 <defs>
  <filter id="filter108" x="-1.2" y="-1.2" width="3.4" height="3.4" color-interpolation-filters="sRGB">
   <feGaussianBlur stdDeviation="640.02676"/>
  </filter>
 </defs>
 <g transform="translate(5.9729)">
  <path transform="matrix(.001 0 0 .001 10.02 15.36)" d="m13.5-0.0097656c-4.5 0.009766-9 0.015625-13.5 0.0097656-624.29 344.3-635.8 490.14-635.52 631.01 0.01 4.5 0.0146 9 0.01 13.5-0.0163 7.4978-0.0286 14.996-0.0215 22.494 344.32 601.8 490.16 613.3 631.03 613.02 4.5-0.01 9-0.016 13.5-0.01 7.4978 0.016 14.996 0.024 22.494 0.022 601.8-344.32 613.3-490.16 613.02-631.03-0.01-4.5-0.0146-9-0.01-13.5 0.0163-7.4978 0.0286-14.996 0.0215-22.494-344.32-601.8-490.16-613.3-631.03-613.02zm325.24 295.19c2.3624 0.11445 5.0895 1.7509 7.3086 5.4551 8.2521 13.775 18.401 26.238 28.793 38.451 1.5505-2.6272 3.7563-4.835 6.5391-5.832 0.63562-0.22773 1.3011-0.30728 1.9785-0.32422 1.1291-0.0282 2.2939 0.12013 3.418 0.0664 1.451 0.59881 3.0027 0.99732 4.3535 1.7969 2.6919 1.5933 5.0385 4.3318 6.9355 6.7305 2.5733 3.2536 4.7489 6.7768 6.7793 10.385 1.1505-0.16318 2.2994-0.38049 3.457-0.3418 0.5831 0.0195 1.1566 0.094 1.7207 0.21289 1.4638-3.2638 2.9367-6.5238 4.3691-9.8008 3.0301-6.9341 1.5741-3.5609 4.3711-10.113 2.0034-4.6934 5.1203-6.657 7.7832-6.5606 3.8919 0.14098 6.8154 4.6837 3.8867 11.543-2.84 6.6516-1.369 3.2465-4.4141 10.215-1.5948 3.6483-3.2701 7.2611-4.9297 10.881 4.8588 3.6354 9.5924 7.4541 13.688 11.957 8.4514 9.2932 0.13286 18.808-8.3555 9.5488-2.6302-2.8692-5.5061-5.4611-8.5117-7.9043-0.40576 2.96-0.73155 5.9366-1.4434 8.832 1.0416 3.8131 1.9097 7.6683 2.3242 11.623 1.2649 12.069-9.9072 12.294-12.379 1.1074-1.491 1.235-3.2906 2.0268-5.498 2.0684-1.7712 0.0333-3.405-0.97857-5.1074-1.4688-0.8518-0.88418-1.8219-1.6692-2.5547-2.6543-3.2144-4.3214-2.987-10.48-2.7949-15.588-0.46417-0.49216-0.92979-0.98297-1.3945-1.4746-1.6277 2.8079-3.2734 5.608-4.7617 8.4883-5.7667 11.16-17.019 5.5336-11.35-5.6758 2.1651-4.281 4.4801-8.4891 7.0586-12.535-2.4625-2.6973-4.9059-5.411-7.3144-8.1582-13.325-15.546-26.846-31.128-37.406-48.75-4.2373-7.071-1.0589-12.398 3.4512-12.18zm44.547 49.686c-0.14908 0.024-0.30477 0.14745-0.45508 0.1914 0.37049 0.20843 0.69583 0.5352 1.1113 0.625 0.15254 0.033 0.31152 0.0185 0.47265-0.01-0.1153-0.18901-0.27975-0.36142-0.51562-0.54492-0.15467-0.0875-0.30846-0.17756-0.4668-0.2461-0.0479-0.0207-0.0968-0.0236-0.14648-0.0156zm1.8047 2.7852c-0.1492 0.72177-0.21922 1.2193 0.12891 0.42774-0.0634-0.196-0.0784-0.26191-0.12891-0.42774zm5.543 5.1816c-0.70564 0.52608-1.6496 0.9648-2.6016 1.3965 0.7064 0.77911 1.4166 1.5547 2.127 2.3301 0.73396-0.15554 1.4586-0.35064 2.2266-0.36719 0.13391-3e-3 0.27924 0.0589 0.41407 0.0605-0.69392-1.1581-1.4072-2.3035-2.166-3.4199z" fill="none" filter="url(#filter108)"/>
  <g stroke-width=".044421">
   <path d="m10.488 0.17231c0.01333 0.04442 0.0311 0.08884 0.04442 0.13326 0.08884 0.04442 0.08884 0.04442 0.17768 0.08884l0.39979 0.39979c0.08884 0.08884 0.17768 0.17768 0.26653 0.26653l0.53305 0.53305c0.17768 0.17768 0.35537 0.31095 0.51528 0.46642l0.35537 0.35537c0.08884 0.08884 0.17768 0.17768 0.31095 0.26653 0.26653 0.2221 0.50196 0.47975 0.75072 0.7285 0.17768 0.17768 0.39979 0.35537 0.58636 0.55082 0.31095 0.26653 0.55526 0.54638 0.83067 0.82179 0.26653 0.26653 0.5064 0.49752 0.77737 0.73295 0.08884 0.088842 0.13326 0.13326 0.2221 0.22211 0.17768 0.17768 0.39979 0.35537 0.57747 0.53305 0.26653 0.22211 0.48863 0.44421 0.72406 0.6752 0.17768 0.17768 0.17768 0.17768 0.35537 0.31095 0.17768 0.17768 0.31095 0.31095 0.48419 0.51084 0.08884 0.088842 0.17768 0.13326 0.26653 0.22211 0.2221 0.22211 0.45309 0.44421 0.6752 0.65299 0.04442 0.044421 0.08884 0.088842 0.13326 0.13326 0.04442 0.044421 0.08884 0.088842 0.13326 0.13326 0.04442 0.044421 0.08884 0.088842 0.13326 0.13326 0.2221 0.26653 0.31095 0.44865 0.31095 0.78625 4.44e-4 0.088842 8.88e-4 0.13326 0.0013 0.22211-4.45e-4 0.08884-8.89e-4 0.13326-0.0013 0.2221 4.44e-4 0.13326 4.44e-4 0.13326 8.88e-4 0.2221 8.89e-4 0.2221 4.45e-4 0.44421 0 0.66187-4.44e-4 0.2221 0 0.4753 4.45e-4 0.71518 8.88e-4 0.46642 8.88e-4 0.93284 0 1.3993-4.45e-4 0.39979-4.45e-4 0.7596 0 1.1372v0.17768 0.31095c4.44e-4 1.0306 0 2.0567-8.89e-4 3.0873-8.88e-4 0.88398-4.44e-4 1.768 0 2.6475 0.0013 1.0261 0.0013 2.0523 8.89e-4 3.0739v0.31095 0.17768c-4.45e-4 0.39979 0 0.7596 4.44e-4 1.1372 4.44e-4 0.46198 4.44e-4 0.92396-8.89e-4 1.3859-4.44e-4 0.2221-4.44e-4 0.47086 0 0.7063 8.89e-4 0.26653 0 0.51084-8.88e-4 0.76404 4.44e-4 0.13326 4.44e-4 0.13326 0.0013 0.2221-8.89e-4 0.08884-8.89e-4 0.08884-0.0013 0.22211 0 0.04442-4.44e-4 0.13326-4.44e-4 0.17768-0.13326 0.86621-0.90175 0.83512-1.5903 0.83512h-0.17768c-0.17768 4.44e-4 -0.35537 0-0.51528 0h-0.35537-0.76404c-0.31095-4.44e-4 -0.6441-4.44e-4 -0.96394 0-3.5359 0.0027-3.5359 0.0027-4.0201-0.08884-0.0035 0.04442-0.0089 0.08884-0.0089 0.13326-0.04442 0.31095-0.2221 0.53305-0.44421 0.79514-0.04442 0.08884-0.08884 0.13326-0.13326 0.22211-0.90619 1.2927-0.90619 1.2927-1.1816 1.2927-0.088842-0.13326-0.17768-0.2221-0.26653-0.35537-0.026653-0.03554-0.044421-0.08884-0.088842-0.08884-0.044398-0.08884-0.088819-0.13326-0.13324-0.2221-0.088842-0.08884-0.13326-0.17768-0.22211-0.31095-0.75516-1.0661-0.75516-1.0661-0.75516-1.4126-0.088842-0.02221-0.088842-0.02221-0.26653-0.01777-0.088842-4.44e-4 -0.088842-4.44e-4 -0.17768-4.44e-4 -0.088842 8.88e-4 -0.088842 8.88e-4 -0.17768 0.0018h-0.17768c-0.22211 4.45e-4 -0.44421 0.0018-0.63966 0.0027-0.13326 4.44e-4 -0.31095 8.88e-4 -0.44421 8.88e-4 -0.39979 8.88e-4 -0.78625 0.0027-1.1816 4e-3 -0.62634 0.0027-1.2527 0.0044-1.879 0.0044-0.22211 8.88e-4 -0.44421 0.0018-0.65299 0.0027-0.31095 0.0013-0.65299 0.0013-0.9817-8.88e-4 -0.13326-4.44e-4 -0.22211-4.44e-4 -0.35537 0-0.17768 4.44e-4 -0.31095-0.0013-0.47975-0.0036-0.044421 8.89e-4 -0.088842 0.0013-0.13326 0.0018-0.54638-0.01333-0.86621-0.39979-0.86621-0.91063-4.443e-4 -0.08884-8.885e-4 -0.13326-0.00133-0.2221 4.442e-4 -0.08884 4.442e-4 -0.13326 8.884e-4 -0.2221-4.442e-4 -0.08884-8.884e-4 -0.17768-8.884e-4 -0.2221-8.884e-4 -0.22211-8.884e-4 -0.44865-8.884e-4 -0.67076s-4.442e-4 -0.48419-0.00133-0.72406c-8.884e-4 -0.47086-0.00133-0.94617-0.00133-1.417 0-0.39979-4.442e-4 -0.76848-8.884e-4 -1.1505-0.00133-1.0883-0.00178-2.1766-0.00178-3.2649v-0.17768-0.17768c4.442e-4 -0.95505-8.884e-4 -1.9057-0.00311-2.8607-0.00178-0.97726-0.00267-1.9545-0.00267-2.9318 0-0.55082 0-1.0972-0.00178-1.648-8.884e-4 -0.46642-0.00133-0.93728-4.442e-4 -1.4037 4.442e-4 -0.2221 4.442e-4 -0.4753-8.884e-4 -0.71518-8.884e-4 -0.2221-8.884e-4 -0.44421 4.442e-4 -0.65299 4.442e-4 -0.13326-8.884e-4 -0.2221-0.00178-0.35537 0.00444-0.62634 0.00444-0.62634 0.31095-0.86621 0.044421-0.044421 0.13326-0.088842 0.17768-0.13326l0.44421-0.44421c0.088842-0.088842 0.17768-0.13326 0.26653-0.22211 0.26653-0.22211 0.52417-0.50196 0.78181-0.7596 0.31095-0.31095 0.60413-0.60857 0.93284-0.88842l0.088842-0.088842c0.088842-0.088842 0.22211-0.17768 0.31095-0.26653 0.31095-0.26653 0.58192-0.53749 0.87065-0.80846 0.088842-0.088842 0.17768-0.17768 0.26653-0.22211 0.4753-0.44421 0.93728-0.90175 1.3948-1.3637 0.044421-0.04442 0.088842-0.08884 0.13326-0.17768 0.044421-0.04442 0.088842-0.08884 0.13326-0.13326 0.13326-0.13326 0.26653-0.26653 0.39979-0.35537 0.17768-0.17768 0.35537-0.35537 0.52417-0.51528 0.044421-0.04442 0.044421-0.04442 0.13326-0.13326 0.13326-0.13326 0.26653-0.26653 0.39979-0.39979 0.17768-0.17768 0.35537-0.35537 0.50196-0.5064 0.039979-0.03998 0.088842-0.08884 0.13326-0.13326 0.22211-0.2221 0.44421-0.44421 0.67076-0.62189 0.17768-0.17768 0.35537-0.35537 0.50196-0.51528 0.39979-0.35537 0.71518-0.44421 1.186-0.13326z" fill="#102227"/>
   <path d="m10.488 0.17231c0.01333 0.04442 0.0311 0.08884 0.04442 0.13326 0.08884 0.04442 0.08884 0.04442 0.17768 0.08884l0.39979 0.39979c0.08884 0.08884 0.17768 0.17768 0.26653 0.26653l0.53305 0.53305c0.17768 0.17768 0.35537 0.31095 0.51528 0.46642l0.35537 0.35537c0.08884 0.08884 0.17768 0.17768 0.31095 0.26653 0.26653 0.2221 0.50196 0.47975 0.75072 0.7285 0.17768 0.17768 0.39979 0.35537 0.58636 0.55082 0.31095 0.26653 0.55526 0.54638 0.83067 0.82179 0.26653 0.26653 0.5064 0.49752 0.77737 0.73295 0.08884 0.088842 0.13326 0.13326 0.2221 0.22211 0.17768 0.17768 0.39979 0.35537 0.57747 0.53305 0.26653 0.22211 0.48863 0.44421 0.72406 0.6752 0.17768 0.17768 0.17768 0.17768 0.35537 0.31095 0.17768 0.17768 0.31095 0.31095 0.48419 0.51084 0.08884 0.088842 0.17768 0.13326 0.26653 0.22211 0.2221 0.22211 0.45309 0.44421 0.6752 0.65299 0.04442 0.044421 0.08884 0.088842 0.13326 0.13326 0.04442 0.044421 0.08884 0.088842 0.13326 0.13326 0.04442 0.044421 0.08884 0.088842 0.13326 0.13326 0.2221 0.26653 0.31095 0.44865 0.31095 0.78625 4.44e-4 0.088842 8.88e-4 0.13326 0.0013 0.22211-4.45e-4 0.08884-8.89e-4 0.13326-0.0013 0.2221 4.44e-4 0.13326 4.44e-4 0.13326 8.88e-4 0.2221 8.89e-4 0.2221 4.45e-4 0.44421 0 0.66187-4.44e-4 0.2221 0 0.4753 4.45e-4 0.71518 8.88e-4 0.46642 8.88e-4 0.93284 0 1.3993-4.45e-4 0.39979-4.45e-4 0.7596 0 1.1372v0.17768 0.31095c4.44e-4 1.0306 0 2.0567-8.89e-4 3.0873-8.88e-4 0.88398-4.44e-4 1.768 0 2.6475 0.0013 1.0261 0.0013 2.0523 8.89e-4 3.0739v0.31095 0.17768c-4.45e-4 0.39979 0 0.7596 4.44e-4 1.1372 4.44e-4 0.46198 4.44e-4 0.92396-8.89e-4 1.3859-4.44e-4 0.2221-4.44e-4 0.47086 0 0.7063 8.89e-4 0.26653 0 0.51084-8.88e-4 0.76404 4.44e-4 0.13326 4.44e-4 0.13326 0.0013 0.2221-8.89e-4 0.08884-8.89e-4 0.08884-0.0013 0.22211 0 0.04442-4.44e-4 0.13326-4.44e-4 0.17768-0.13326 0.86621-0.90175 0.83512-1.5903 0.83512h-0.17768c-0.17768 4.44e-4 -0.35537 0-0.51528 0h-0.35537-0.76404c-0.31095-4.44e-4 -0.6441-4.44e-4 -0.96394 0-3.5359 0.0027-3.5359 0.0027-4.0201-0.08884-0.0035 0.04442-0.0089 0.08884-0.0089 0.13326-0.04442 0.31095-0.2221 0.53305-0.44421 0.79514-0.04442 0.08884-0.08884 0.13326-0.13326 0.22211-0.90619 1.2927-0.90619 1.2927-1.1816 1.2927-0.088842-0.13326-0.17768-0.2221-0.26653-0.35537-0.026653-0.03554-0.044421-0.08884-0.088842-0.08884-0.044398-0.08884-0.088819-0.13326-0.13324-0.2221-0.088842-0.08884-0.13326-0.17768-0.22211-0.31095-0.75516-1.0661-0.75516-1.0661-0.75516-1.4126-0.088842-0.02221-0.088842-0.02221-0.26653-0.01777-0.088842-4.44e-4 -0.088842-4.44e-4 -0.17768-4.44e-4 -0.088842 8.88e-4 -0.088842 8.88e-4 -0.17768 0.0018h-0.17768c-0.22211 4.45e-4 -0.44421 0.0018-0.63966 0.0027-0.13326 4.44e-4 -0.31095 8.88e-4 -0.44421 8.88e-4 -0.39979 8.88e-4 -0.78625 0.0027-1.1816 4e-3 -0.62634 0.0027-1.2527 0.0044-1.879 0.0044-0.22211 8.88e-4 -0.44421 0.0018-0.65299 0.0027-0.31095 0.0013-0.65299 0.0013-0.9817-8.88e-4 -0.13326-4.44e-4 -0.22211-4.44e-4 -0.35537 0-0.17768 4.44e-4 -0.31095-0.0013-0.47975-0.0036-0.044421 8.89e-4 -0.088842 0.0013-0.13326 0.0018-0.54638-0.01333-0.86621-0.39979-0.86621-0.91063-4.443e-4 -0.08884-8.885e-4 -0.13326-0.00133-0.2221 4.442e-4 -0.08884 4.442e-4 -0.13326 8.884e-4 -0.2221-4.442e-4 -0.08884-8.884e-4 -0.17768-8.884e-4 -0.2221-8.884e-4 -0.22211-8.884e-4 -0.44865-8.884e-4 -0.67076s-4.442e-4 -0.48419-0.00133-0.72406c-8.884e-4 -0.47086-0.00133-0.94617-0.00133-1.417 0-0.39979-4.442e-4 -0.76848-8.884e-4 -1.1505-0.00133-1.0883-0.00178-2.1766-0.00178-3.2649v-0.17768-0.17768c4.442e-4 -0.95505-8.884e-4 -1.9057-0.00311-2.8607-0.00178-0.97726-0.00267-1.9545-0.00267-2.9318 0-0.55082 0-1.0972-0.00178-1.648-8.884e-4 -0.46642-0.00133-0.93728-4.442e-4 -1.4037 4.442e-4 -0.2221 4.442e-4 -0.4753-8.884e-4 -0.71518-8.884e-4 -0.2221-8.884e-4 -0.44421 4.442e-4 -0.65299 4.442e-4 -0.13326-8.884e-4 -0.2221-0.00178-0.35537 0.00444-0.62634 0.00444-0.62634 0.31095-0.86621 0.044421-0.044421 0.13326-0.088842 0.17768-0.13326l0.44421-0.44421c0.088842-0.088842 0.17768-0.13326 0.26653-0.22211 0.26653-0.22211 0.52417-0.50196 0.78181-0.7596 0.31095-0.31095 0.60413-0.60857 0.93284-0.88842l0.088842-0.088842c0.088842-0.088842 0.22211-0.17768 0.31095-0.26653 0.31095-0.26653 0.58192-0.53749 0.87065-0.80846 0.088842-0.088842 0.17768-0.17768 0.26653-0.22211 0.4753-0.44421 0.93728-0.90175 1.3948-1.3637 0.044421-0.04442 0.088842-0.08884 0.13326-0.17768 0.044421-0.04442 0.088842-0.08884 0.13326-0.13326 0.13326-0.13326 0.26653-0.26653 0.39979-0.35537 0.17768-0.17768 0.35537-0.35537 0.52417-0.51528 0.044421-0.04442 0.044421-0.04442 0.13326-0.13326 0.13326-0.13326 0.26653-0.26653 0.39979-0.39979 0.17768-0.17768 0.35537-0.35537 0.50196-0.5064 0.039979-0.03998 0.088842-0.08884 0.13326-0.13326 0.22211-0.2221 0.44421-0.44421 0.67076-0.62189 0.17768-0.17768 0.35537-0.35537 0.50196-0.51528 0.39979-0.35537 0.71518-0.44421 1.186-0.13326zm-0.79958 1.0084c-0.13326 0.17768-0.31095 0.31095-0.46198 0.48419-0.031095 0.03109-0.044421 0.04442-0.088842 0.08884-0.13326 0.13326-0.31095 0.31095-0.46198 0.44421-0.22211 0.17768-0.39979 0.35537-0.57747 0.55526-0.22211 0.26653-0.49307 0.48419-0.75516 0.71074-0.13326 0.13326-0.26653 0.26653-0.35537 0.35537-0.22211 0.2221-0.47975 0.46642-0.73295 0.68853-0.088842 0.044421-0.13326 0.13326-0.22211 0.22211-0.13326 0.13326-0.22211 0.22211-0.35537 0.31095-0.26653 0.22211-0.51084 0.48419-0.75516 0.73295-0.53749 0.54638-0.53749 0.54638-0.74627 0.72406-0.17768 0.13326-0.35537 0.31095-0.49752 0.4753-0.17768 0.17768-0.31095 0.31095-0.5064 0.48419-0.17768 0.17768-0.35537 0.35537-0.5597 0.53749-0.22211 0.22211-0.47975 0.46642-0.73295 0.68853-0.17768 0.17768-0.35537 0.35537-0.50196 0.51084-0.17768 0.17768-0.17768 0.17768-0.31095 0.22211-0.26653 0.26653-0.22211 0.5597-0.22211 0.90175-0.00444 0.08884-0.00888 0.17768-0.013326 0.2221-0.013326 0.2221-0.026653 0.44421-0.035537 0.65299-0.00888 0.13326-0.013326 0.26653-0.02221 0.39979-0.088842 1.8124-0.17768 3.6292-0.22211 5.4447-0.00444 0.2221-0.013326 0.46198-0.017768 0.68853-0.00133 0.04442-0.00311 0.13326-0.00444 0.17768-0.026653 0.87065-0.088842 1.7369-0.13326 2.6075-0.088842 1.3282-0.13326 2.6564-0.13326 3.989 0 0.04442 0 0.08884-4.442e-4 0.17768-0.00267 2.4965 0.088842 4.6442 3.1361 4.6793 2.6964-0.01777 2.6964-0.01777 4.3844-1.1727 0-0.03998 0-0.08884 4.443e-4 -0.13326 4.442e-4 -0.13326 4.442e-4 -0.26653 4.442e-4 -0.39979 0-0.08884 4.442e-4 -0.17768 4.442e-4 -0.26653 4.442e-4 -0.2221 8.884e-4 -0.39979 0.00133-0.61301 4.442e-4 -0.31095 0.00133-0.64855 0.00222-0.97282 0.00267-0.92396 0.00444-1.8435 0.00444-2.763 8.884e-4 -0.5064 0.00222-1.0172 4e-3 -1.5281 8.884e-4 -0.26653 0.00178-0.53749 0.00178-0.80846 0-0.26653 8.884e-4 -0.5064 0.00178-0.7596 4.442e-4 -0.08884 4.442e-4 -0.17768 4.442e-4 -0.26653 0-0.13326 4.442e-4 -0.26653 0.00133-0.39979 0-0.08884 4.442e-4 -0.13326 4.442e-4 -0.2221 0.039979-0.44421 0.31095-0.50196 0.69297-0.50196 0.088842-4.45e-4 0.13326-0.0013 0.22211-0.0018 0.088842 0 0.17768 0 0.26653-4.45e-4 0.088842 0 0.17768-4.44e-4 0.26653-8.88e-4 0.17768-4.44e-4 0.35537-4.44e-4 0.53305-4.44e-4 0.22211 0 0.45309-0.0013 0.68408-0.0027 0.17768-8.89e-4 0.35537-0.0013 0.52417-0.0013 0.08884 0 0.17768-4.45e-4 0.26653-8.89e-4 0.13326-8.88e-4 0.2221-8.88e-4 0.35537-4.44e-4h0.2221c0.44421 0.04442 0.54194 0.31095 0.54194 0.71074 4.44e-4 0.08884 8.88e-4 0.17768 0.0013 0.2221v0.26653c4.44e-4 0.08884 8.88e-4 0.17768 0.0013 0.26653 4.44e-4 0.2221 0.0013 0.39979 0.0013 0.60413 8.88e-4 0.31095 0.0018 0.63966 0.0031 0.95949 0.0018 0.5064 0.0031 1.0084 0.0044 1.5148 0.0022 0.90619 0.0044 1.8124 0.0089 2.7141 8.88e-4 0.31095 0.0018 0.63522 0.0027 0.95505 4.44e-4 0.17768 8.88e-4 0.39979 0.0018 0.5908 0 0.08884 4.44e-4 0.17768 4.44e-4 0.26653 0 0.13326 4.44e-4 0.26653 8.88e-4 0.35537 4.44e-4 0.08884 4.44e-4 0.13326 8.89e-4 0.2221 0.0044 0.35537 0.0044 0.35537 0.35537 0.44421 0.04442 8.88e-4 0.13326 0.0018 0.17768 0.0027 0.08884 0 0.08884 0 0.2221-4.44e-4 0.08884 8.88e-4 0.13326 0.0013 0.2221 0.0022 0.2221 0.0018 0.47086 0.0022 0.7063 0.0027 0.2221 0.0013 0.44421 0.0031 0.65299 0.0044 0.17768 8.89e-4 0.31095-0.0022 0.4753-0.0089 0.49752-0.01777 0.95505 0.02221 1.4481 0.13326 1.8301 0.35537 1.8301 0.35537 2.8563-0.84844 0.13326-0.97726 0.08884-1.9723 0.04442-2.954-0.02221-0.53305-0.02665-1.0705-0.02665-1.6036-0.0044-0.95505-0.02665-1.9101-0.04442-2.8652-0.02665-0.9284-0.04442-1.8524-0.04442-2.7808-8.89e-4 -0.04442-0.0013-0.13326-0.0022-0.17768-0.0022-0.2221-0.0044-0.45754-0.0089-0.68853-0.01777-1.7591-0.04442-3.5137-0.08884-5.2719-0.0044-0.17768-0.0089-0.35537-0.01333-0.55526-0.0044-0.26653-0.01333-0.50196-0.02221-0.75516-8.89e-4 -0.08884-0.0022-0.13326-0.0031-0.2221-0.0177-0.39977-0.03103-0.59966-0.39972-0.804-0.13326-0.088842-0.2221-0.22211-0.31095-0.31095-0.1777-0.17767-0.31096-0.35535-0.51086-0.49306-0.2221-0.22211-0.46198-0.44421-0.68853-0.67076-0.13326-0.13326-0.2221-0.22211-0.35537-0.31095-0.088842-0.088842-0.13326-0.13326-0.2221-0.22211-0.13326-0.088842-0.2221-0.22211-0.35537-0.31095l-0.088842-0.088842c-0.2221-0.22211-0.46642-0.44421-0.7063-0.6441-0.088842-0.088842-0.17768-0.22211-0.26653-0.31095-0.088842-0.088842-0.17768-0.13326-0.26653-0.22211-0.17768-0.13326-0.31095-0.31095-0.46198-0.45309-0.088842-0.088842-0.17768-0.17768-0.26653-0.26653-0.26653-0.22211-0.5064-0.48419-0.75516-0.73295-0.26653-0.26653-0.5597-0.56415-0.86177-0.81735l-0.66631-0.66631c-0.17768-0.17768-0.35537-0.35537-0.54638-0.49752-0.03998-0.04442-0.08884-0.08884-0.13326-0.13326-0.13326-0.13326-0.2221-0.26653-0.39979-0.35537-0.17769-0.17768-0.35537-0.35537-0.55082-0.54638-0.26653-0.26653-0.35537-0.26653-0.58636 0.031094z" fill="#f6f0df"/>
   <path d="m11.133 9.9387c0.08884-0.00133 0.08884-0.00133 0.17768-0.00267 0.08884-0.00133 0.17768-0.00355 0.31095-0.00888 0.39979-0.00444 0.65299 0.088842 0.93728 0.35537 0.0311 0.02665 0.04442 0.04442 0.08884 0.08884 0.22211 0.26653 0.22211 0.54638 0.22211 0.8973 4.44e-4 0.04442 8.88e-4 0.08884 0.0013 0.17768 8.88e-4 0.17768 0.0013 0.35537 0.0013 0.52861 4.44e-4 0.13326 8.88e-4 0.26653 0.0013 0.35537 8.88e-4 0.26653 0.0013 0.51528 0.0013 0.77293 0 0.31095 0.0018 0.66187 4e-3 0.99059 0.0013 0.26653 0.0018 0.5064 0.0018 0.76404 0 0.13326 4.44e-4 0.22211 0.0018 0.35537 0.0013 0.17768 8.88e-4 0.35537 0 0.51084 8.88e-4 0.08884 8.88e-4 0.08884 0.0022 0.13326-0.0089 0.79069-0.63078 1.2616-1.3948 1.266-0.08884 4.44e-4 -0.13326 0.0013-0.2221 0.0022-0.08884 4.44e-4 -0.17768 4.44e-4 -0.26653 4.44e-4 -0.08884 4.44e-4 -0.17768 8.88e-4 -0.26653 0.0013-0.17768 8.89e-4 -0.35537 0.0013-0.53305 0.0013-0.2221 0-0.45309 0.0018-0.67964 4e-3 -0.17768 0.0013-0.35537 0.0018-0.52861 0.0018-0.088842 0-0.17768 4.44e-4 -0.26653 0.0018-0.91507 0.0089-1.5992-0.26653-1.6169-1.2927-4.442e-4 -0.04442-8.884e-4 -0.08884-0.00133-0.13326-4.442e-4 -0.04442-0.00133-0.08884-0.00222-0.17768-0.00222-0.17768-4e-3 -0.35537-0.00444-0.51528-0.00133-0.13326-0.00267-0.2221-0.00355-0.35537-0.00267-0.26653-0.00444-0.50196-0.00888-0.75072-0.00266-0.31095-0.00444-0.63966-0.00888-0.9595-0.00311-0.26653-0.00444-0.49307-0.00888-0.73739-0.00133-0.13326-0.00266-0.2221-0.00444-0.35537-0.00222-0.17768-0.00311-0.31095-4e-3 -0.49307-8.884e-4 -0.04442-0.00178-0.08884-0.00311-0.13326 0-0.83067 0.61301-1.2927 1.4037-1.306 0.044421 4.442e-4 0.088842 8.884e-4 0.17768 0.00133 0.088842-8.884e-4 0.088842-8.884e-4 0.17768-0.00222 0.17768-0.00133 0.35537-0.00133 0.55082-8.885e-4 0.13326-8.884e-4 0.22211-0.00178 0.35537-0.00311 0.22211-0.00178 0.47531-0.00222 0.71074-0.00222 0.2221 4.442e-4 0.4531-0.00222 0.6752-0.00888z" fill="#fa6c31"/>
   <path d="m2.8056 18.547c0.088842-0.0018 0.088842-0.0018 0.22211-0.0036 0.088842-4.44e-4 0.17768-0.0013 0.22211-0.0018 0.039979-4.44e-4 0.088842-8.88e-4 0.13326-0.0013 0.22211-0.0018 0.44421-0.0031 0.6441-4e-3 0.22211-8.88e-4 0.44421-4e-3 0.66632-0.0089 0.17768-0.0022 0.35537-0.0031 0.51084-0.0031 0.13326-8.88e-4 0.22211-0.0031 0.35537-0.0044 0.088842 4.45e-4 0.088842 4.45e-4 0.22211 4.45e-4 0.088842-4.45e-4 0.088842-4.45e-4 0.17768-0.0013 0.55082 0.13326 0.53305 0.59968 0.52861 1.075 8.884e-4 0.08884 8.884e-4 0.08884 0.00178 0.2221 0.00133 0.2221 4.443e-4 0.44421-4.442e-4 0.66632 0 0.13326 4.442e-4 0.31095 8.885e-4 0.46642 4.442e-4 0.31095-4.443e-4 0.64855-0.00178 0.97282-0.00178 0.35537-0.00133 0.75072 4.442e-4 1.1239 0.00178 0.35537 0.00133 0.72406 4.442e-4 1.0839 0 0.13326 0 0.31095 8.885e-4 0.46198 8.884e-4 0.22211-4.443e-4 0.44421-0.00222 0.6441 8.884e-4 0.04442 0.00133 0.13326 0.00222 0.17768-0.00888 0.55526-0.17768 0.88398-0.77737 0.88842-0.088842 8.88e-4 -0.13326 0.0013-0.22211 0.0018-0.13326 4.44e-4 -0.13326 4.44e-4 -0.22211 8.88e-4 -0.088842 4.44e-4 -0.17768 8.89e-4 -0.22211 0.0013-0.17768 4.44e-4 -0.35537 8.88e-4 -0.50196 0.0013-0.22211 4.44e-4 -0.44421 0.0022-0.6441 4e-3 -0.22211 0.0013-0.39979 0.0013-0.61301 0.0018-0.088842 8.89e-4 -0.13326 0.0018-0.22211 0.0022h-0.22211c-0.044421 0-0.13326 4.45e-4 -0.17768 4.45e-4 -0.39979-0.04442-0.63522-0.31095-0.63522-0.71074-8.884e-4 -0.04442-0.00133-0.13326-0.00178-0.17768 0-0.04442 4.442e-4 -0.13326 8.884e-4 -0.17768-4.442e-4 -0.08884-8.884e-4 -0.13326-0.00133-0.2221-8.885e-4 -0.2221-8.885e-4 -0.44865-4.443e-4 -0.67076 0-0.17768-4.442e-4 -0.31095-4.442e-4 -0.46642-8.884e-4 -0.31095-4.442e-4 -0.65299 0-0.97726 8.885e-4 -0.35537 4.442e-4 -0.75516-0.00133-1.1283-0.00133-0.35537-0.00133-0.72406-8.884e-4 -1.0883 0-0.13326-4.442e-4 -0.31095-8.884e-4 -0.46198-8.885e-4 -0.2221 0-0.44421 8.884e-4 -0.6441-4.442e-4 -0.04442-8.884e-4 -0.13326-0.00178-0.17768 0.00444-0.57303 0.17768-0.83512 0.78625-0.844z" fill="#f4efdd"/>
   <path d="m14.203 18.553c0.08884-0.0013 0.08884-0.0013 0.2221-0.0031 0.31095-0.0031 0.65743-0.0044 0.98615-0.0089 0.17768-8.88e-4 0.35537-0.0027 0.51973-0.0044 0.26653-0.0036 0.50196-0.0044 0.75072-0.0044 0.08884-0.0013 0.13326-0.0027 0.2221-0.0044 0.54194 8.89e-4 0.99503 0.08884 1.0039 0.71074 0.0013 0.04442 0.0022 0.13326 0.0031 0.17768 8.88e-4 0.04442 0.0018 0.13326 0.0022 0.17768 0.0013 0.08884 0.0022 0.13326 0.0031 0.2221 0.0089 0.62189 0.01777 1.2482 0.02221 1.8701 0.0044 0.46198 0.0089 0.91952 0.01777 1.3815 0.0044 0.35537 0.0089 0.72406 0.01333 1.0883 0.0018 0.13326 4e-3 0.31095 0.0044 0.46198 4e-3 0.2221 0.0044 0.44421 0.0044 0.64855 0.0018 0.04442 0.0036 0.13326 0.0044 0.17768-0.0018 0.59968-0.26653 0.83956-0.86621 0.844-0.08884 4.44e-4 -0.13326 0.0013-0.2221 0.0022-0.31095 0.0018-0.6441 0.0036-0.96394 0.0044-0.17768 4.44e-4 -0.35537 0.0018-0.51084 0.0036-0.2221 0.0027-0.48863 0.0031-0.73295 4e-3 -0.08884 8.89e-4 -0.13326 0.0018-0.2221 0.0031-0.08884-4.45e-4 -0.08884-4.45e-4 -0.2221-4.45e-4 -0.04442 4.45e-4 -0.13326 8.89e-4 -0.17768 8.89e-4 -0.35537-0.04442-0.53305-0.31095-0.53305-0.66632-4.44e-4 -0.04442-8.88e-4 -0.13326-0.0013-0.17768v-0.17768c-4.44e-4 -0.08884-4.44e-4 -0.08884-0.0013-0.2221-8.88e-4 -0.2221-0.0013-0.45309-0.0013-0.68408-4.44e-4 -0.17768-8.88e-4 -0.31095-0.0013-0.47086-8.88e-4 -0.31095-0.0013-0.66187-0.0013-0.99059 0-0.39979-0.0013-0.76404-0.0031-1.1461-0.0018-0.35537-0.0022-0.73295-0.0027-1.1016 0-0.17768-4.44e-4 -0.31095-0.0013-0.47086-0.0013-0.2221-0.0013-0.44421-4.44e-4 -0.65743-8.88e-4 -0.04442-0.0013-0.13326-0.0022-0.17768 4e-3 -0.53305 0.13326-0.79514 0.67964-0.79958z" fill="#f6f0de"/>
   <path d="m15.038 9.873c0.08884-4.442e-4 0.13326-4.442e-4 0.2221-4.442e-4 0.13326 0 0.26653 4.442e-4 0.44421 0.00178 0.2221 0.00133 0.44421 8.884e-4 0.64855 0 0.13326 4.442e-4 0.26653 4.442e-4 0.39979 0.00133 0.04442-4.442e-4 0.13326-4.442e-4 0.17768-8.884e-4 0.77737 0.00888 1.0084 0.31095 1.0128 1.0528 8.88e-4 0.04442 0.0018 0.13326 0.0027 0.17768 0.0027 0.17768 4e-3 0.39979 0.0044 0.58192 0.0013 0.13326 0.0027 0.26653 4e-3 0.39979 0.0027 0.26653 0.0044 0.56859 0.0044 0.85288 0.0022 0.35537 0.0044 0.72406 0.0089 1.0883 0.0036 0.26653 0.0044 0.5597 0.0089 0.83956 8.88e-4 0.13326 0.0027 0.26653 0.0044 0.39979 0.0022 0.17768 0.0031 0.35537 0.0036 0.5597 8.89e-4 0.04442 0.0022 0.08884 0.0031 0.17768-0.0022 0.52417-0.22211 0.87954-0.77293 0.88398-0.04442 4.44e-4 -0.13326 0.0013-0.17768 0.0022-0.08884 8.88e-4 -0.08884 8.88e-4 -0.17768 0.0013-0.08884 8.88e-4 -0.08884 8.88e-4 -0.2221 0.0013-0.13326 8.88e-4 -0.26653 0.0018-0.44421 0.0018-0.2221 8.88e-4 -0.44421 0.0036-0.64855 0.0044-0.13326 8.88e-4 -0.26653 0.0013-0.39979 0.0018-0.04442 8.88e-4 -0.13326 0.0018-0.17768 0.0031-0.66185-0.0031-1.0528-0.31095-1.0616-0.97282 4.44e-4 -0.04442 4.44e-4 -0.08884 8.88e-4 -0.17768-4.44e-4 -0.04442-4.44e-4 -0.13326-8.88e-4 -0.17768-8.88e-4 -0.17768-4.44e-4 -0.39979 4.44e-4 -0.57303 0-0.13326-4.44e-4 -0.26653-4.44e-4 -0.39979-4.44e-4 -0.26653 0-0.55526 8.88e-4 -0.83067 8.89e-4 -0.35537 4.45e-4 -0.71074-8.88e-4 -1.0661-4.44e-4 -0.26653-4.44e-4 -0.54638 0-0.82179 4.44e-4 -0.13326 0-0.26653-4.44e-4 -0.39979-4.44e-4 -0.17768 4.44e-4 -0.35537 0.0013-0.55082-4.44e-4 -0.04442-4.44e-4 -0.08884-8.89e-4 -0.17768 0.0027-0.26653 0.0089-0.45754 0.22211-0.6752 0.03554-0.03998 0.08884-0.088842 0.08884-0.13326 0.26653-0.17768 0.54638-0.13326 0.84844-0.13326z" fill="#f5efdd"/>
   <path d="m3.217 9.8756c0.088842-4.442e-4 0.088842-4.442e-4 0.17768-8.884e-4 0.13326-4.442e-4 0.26653-4.442e-4 0.39979 4.442e-4 0.22211 4.442e-4 0.44421-8.884e-4 0.63966-0.00267 0.13326 0 0.26653 0 0.39979 4.442e-4 0.044421-8.884e-4 0.13326-0.00133 0.17768-0.00222 0.46642 0.00444 0.94617 0.13326 0.95061 0.67964 8.885e-4 0.04442 0.00133 0.08884 0.00178 0.13326v0.17768c4.442e-4 0.04442 8.884e-4 0.13326 0.00133 0.17768 0.00133 0.17768 0.00133 0.39979 0.00178 0.58192 4.442e-4 0.13326 8.884e-4 0.26653 0.00133 0.39979 4.442e-4 0.26653 8.884e-4 0.56415 8.884e-4 0.844 0 0.35537 0.00178 0.71962 4e-3 1.0839 0.00133 0.26653 0.00178 0.55526 0.00178 0.83067 0 0.13326 8.885e-4 0.26653 0.00178 0.39979 0.00133 0.17768 8.884e-4 0.35537 0 0.5597 0.00133 0.08884 0.00133 0.08884 0.00222 0.17768-0.00444 0.5064-0.22211 0.97726-0.77737 0.9817-0.044421 8.89e-4 -0.13326 0.0018-0.17768 0.0027-0.088842 0-0.088842 0-0.22211 4.44e-4 -0.088842 4.45e-4 -0.13326 8.89e-4 -0.22211 0.0013-0.13326 4.45e-4 -0.26653 8.89e-4 -0.44421 8.89e-4 -0.22211 4.44e-4 -0.44421 0.0027-0.66187 0.0044-0.13326 4.44e-4 -0.26653 8.88e-4 -0.39979 8.88e-4 -0.044421 8.89e-4 -0.13326 0.0018-0.17768 0.0027-0.4753-0.0031-0.91507-0.13326-0.91507-0.67964-4.442e-4 -0.04442-8.885e-4 -0.08884-8.885e-4 -0.17768v-0.17768c-4.442e-4 -0.04442-8.884e-4 -0.13326-8.884e-4 -0.17768-8.884e-4 -0.17768-0.00133-0.39979-0.00133-0.5908 0-0.13326-4.442e-4 -0.26653-8.884e-4 -0.39979-4.442e-4 -0.26653-4.442e-4 -0.57303-4.442e-4 -0.86177 0-0.35537-0.00133-0.73295-0.00267-1.1016-0.00133-0.26653-0.00133-0.56415-0.00133-0.84844 0-0.13326-4.442e-4 -0.26653-0.00133-0.39979-8.884e-4 -0.17768-4.442e-4 -0.39979 0-0.56859-4.442e-4 -0.04442-8.884e-4 -0.13326-0.00133-0.17768 0.00444-0.79514 0.48863-0.89286 1.1905-0.88842z" fill="#f5efde"/>
   <path d="m11.335 21.613c0.73295 0.5908 0.39979 2.1988 0.31095 3.0073-0.02665 0.35537-0.03998 0.75072-0.04442 1.1283-0.03109 0.71962-0.08884 1.4348-0.13326 2.1544-0.0089 0.13326-0.01333 0.2221-0.01777 0.35537-0.0022 0.04442-4e-3 0.13326-0.0044 0.17768-0.0013 0.04442-0.0022 0.13326-0.0036 0.17768-0.03109 0.13326-0.03109 0.13326-0.26653 0.13326-0.04442 0.13326-0.04442 0.13326-0.08884 0.26653-0.13326 0.26653-0.26653 0.48419-0.4753 0.71074-0.17768 0.2221-0.31095 0.46198-0.44421 0.69741-0.08884 0.13326-0.08884 0.13326-0.26653 0.17768-0.088842-0.08884-0.088842-0.08884-0.17768-0.2221-0.031095-0.04442-0.044421-0.08884-0.088842-0.13326-0.031095-0.04442-0.044421-0.08884-0.088842-0.17768-0.044418-0.088842-0.13326-0.2221-0.17768-0.31095-0.031095-0.044421-0.044421-0.088842-0.088842-0.13326-0.088842-0.13326-0.22211-0.31095-0.31095-0.44421-0.17768-0.35537-0.17768-0.35537-0.17768-0.48863h-0.17768c-0.031095-0.08884-0.031095-0.08884-0.039979-0.26653-0.00444-0.04442-0.00888-0.13326-0.013326-0.17768-4e-3 -0.04442-0.00888-0.13326-0.013326-0.17768-0.00444-0.08884-0.00888-0.13326-0.013326-0.2221-0.03998-0.63078-0.044422-1.2616-0.088843-1.8923-0.013326-0.44421-0.031095-0.84844-0.044421-1.2749-0.13326-1.9545 0.26653-4.5936 2.9362-3.105z" fill="#0d2025"/>
   <path d="m12.334 5.366c0.17768 1.3771-0.50196 2.6342-1.8923 2.9807-1.3815 0.088842-2.6875-0.74627-2.7985-2.2211-0.044421-0.97726 0.35537-1.7546 1.186-2.2699 0.035537-0.02221 0.088842-0.044421 0.088842-0.044421 1.3415-0.65743 3.0251 0.13326 3.3982 1.5725z" fill="#f5f1e2"/>
   <path d="m11.482 5.5974c0.13326 0.85733-0.35537 1.648-1.2171 1.8612-0.88842 0.088842-1.6303-0.48419-1.7502-1.3859-0.088842-1.9234 2.3987-2.1811 2.9673-0.4753z" fill="#092027"/>
   <path d="m14.983 2.0615h0.2221c0.08884 8.88e-4 0.08884 8.88e-4 0.2221 0.0022 0.08884 0 0.13326 0 0.22211 4.44e-4 0.17768 4.44e-4 0.31095 0.0013 0.46642 0.0027 0.2221 0.0018 0.47975 0.0027 0.71962 0.0031 0.13326 4.44e-4 0.31095 0.0013 0.45309 0.0022 0.08884 4.44e-4 0.08884 4.44e-4 0.22211 8.88e-4 0.04442 4.44e-4 0.13326 8.88e-4 0.2221 0.0018 0.04442 4.44e-4 0.13326 8.88e-4 0.17768 0.0013 0.26653 0.01333 0.2221 0.13326 0.26653 0.39979 0.0027 0.08884 0.0027 0.08884 0.0044 0.17768-0.02665 0.13326-0.02665 0.13326-0.26653 0.2221-0.03109 0.13326-0.03109 0.13326-0.02665 0.2221 4.44e-4 0.04442 4.44e-4 0.08884 4.44e-4 0.13326 0.0022 0.08884 0.0022 0.08884 4e-3 0.17768 4.44e-4 0.04442 8.88e-4 0.13326 0.0013 0.17768 0.0013 0.17768 0.0044 0.35537 0.0089 0.55082 0.0022 0.17768 4e-3 0.35537 0.0044 0.54638 0.0013 0.13326 0.0027 0.22211 0.0044 0.35537 4e-3 0.31095-0.0089 0.5908-0.04442 0.89286-0.22211-0.17768-0.39979-0.35537-0.57747-0.57747-0.04442-0.031095-0.08884-0.044421-0.13326-0.088842-0.17768-0.17768-0.13326-0.39979-0.13326-0.63966 0.0036-0.088842 0.0089-0.22211 0.0089-0.31095 0.0044-0.17768 0.01333-0.31095 0.02665-0.4753 0.08884-0.71962 0.08884-0.71962-0.44865-1.035-0.56859-0.0089-0.56859-0.0089-0.73739 0.47086 8.88e-4 0.2221 8.88e-4 0.2221 0.01777 0.39979 0.02221 0.2221 0.02221 0.2221-0.02221 0.39979-0.17768-0.088842-0.17768-0.088842-0.31095-0.22211-0.13326-0.13326-0.13326-0.13326-0.35537-0.22211-0.2221-0.17768-0.13326-0.39979-0.13326-0.67964 0.0089-0.17768 0.0089-0.17768-0.13326-0.17768-0.04442 0.0044-0.08884 0.01333-0.13326 0.01777-0.26653-0.13326-0.26653-0.35537-0.2221-0.62189 0.17768-0.2221 0.17768-0.2221 0.45309-0.17768z" fill="#f7f3e5"/>
   <path d="m11.599 19.557c0.26653 0.45754 0.2221 0.96394-0.17768 1.3149-0.74627 0.31095-2.6164 0.51973-3.0828-0.31095-0.44421-1.6436 2.3721-1.768 3.2605-1.0217z" fill="#0b2228"/>
   <path d="m8.9722 10.87c0.044421-8.88e-4 0.13326-0.0013 0.17768-0.0018 0.088842-4.44e-4 0.088842-4.44e-4 0.17768-8.88e-4 0.044421-4.44e-4 0.13326-8.88e-4 0.17768-0.0013 0.13326-4.44e-4 0.26653-8.88e-4 0.39979-0.0013 0.2221-8.88e-4 0.39979-0.0027 0.63078-0.0044 0.13326-4.44e-4 0.26653-8.88e-4 0.39979-0.0013 0.04442-4.44e-4 0.13326-0.0013 0.17768-0.0022 0.08884 0 0.08884 0 0.17768 4.44e-4 0.04442-4.44e-4 0.08884-4.44e-4 0.17768-8.88e-4 0.35537 0.04442 0.44421 0.26653 0.39979 0.59968-0.17768 0.26653-0.26653 0.26653-0.57303 0.26653-0.04442 0.0018-0.13326 0.0036-0.17768 0.0044-0.31095 0.0044-0.59524 0.01333-0.88842 0.01777-0.17768 0.0031-0.31095 0.0089-0.47086 0.0089-0.22211 0.0044-0.45309 0.0089-0.6752 0.01333-0.088842 0.0031-0.088842 0.0031-0.22211 0.0089-0.77737 0.0089-0.77737 0.0089-0.87509-0.44421 0.13326-0.47975 0.54194-0.48863 0.95949-0.49307z" fill="#05202c"/>
   <path d="m15.117 22.003c0.48419 0.26653 0.35537 1.0794 0.35537 1.5459-0.0013 0.2221 0.0089 0.47086 0.01777 0.70629 0.02665 1.3104 0.02665 1.3104-0.60413 1.3548-0.7907-0.04442-0.63078-1.0084-0.61745-1.5903 0.0044-0.2221 8.89e-4 -0.47086-0.0044-0.7063-4e-3 -1.5503-4e-3 -1.5503 0.84844-1.3104z" fill="#0e2026"/>
   <path d="m5.39 22.003c0.48419 0.26653 0.35537 1.0839 0.35537 1.5459-0.00444 0.2221 0 0.47086 0.00444 0.70629 0.00444 1.3104 0.00444 1.3104-0.59524 1.3548-0.76404-0.04442-0.60413-1.0306-0.58636-1.5903 0.00444-0.2221 4.442e-4 -0.47086-0.00444-0.7063-0.00444-1.5503-0.00444-1.5503 0.84844-1.3104z" fill="#0f2026"/>
   <path d="m16.857 22.023c0.47975 0.2221 0.31095 1.0928 0.31095 1.5236-0.0044 0.2221-0.0013 0.47086 4e-3 0.70629 0.0027 1.2527 0.0027 1.2527-0.54194 1.3193-0.6441-0.13326-0.51973-0.68853-0.49307-1.2127 0.0018-0.08884 0.0036-0.17768 0.0044-0.31095 0.0027-0.17768 0.0089-0.39979 0.01777-0.58636 0.0089-0.2221-0.0013-0.39979-0.02221-0.59524-0.04442-0.55082 0.04442-0.99947 0.71074-0.85733z" fill="#0e262c"/>
   <path d="m11.455 13.981c0.17768 0.0089 0.26653 0.08884 0.35537 0.2221l0.04442 0.04442c0.02665 0.26653-0.03554 0.39979-0.26653 0.53305-0.08884 0.0044-0.2221 0.0089-0.31095 0.0089-0.04442 8.89e-4 -0.13326 0.0018-0.2221 0.0027-0.31095 0.0022-0.60413 0.0044-0.90619 0.0044-0.17768 8.89e-4 -0.31095 0.0022-0.47975 0.0044-0.22211 0.0027-0.45754 4e-3 -0.68853 0.0044-0.088842 0.0018-0.088842 0.0018-0.22211 0.0036-0.088842 0-0.088842 0-0.22211-4.44e-4 -0.044421 4.44e-4 -0.13326 8.88e-4 -0.17768 0.0013-0.22211-0.04442-0.35537-0.17768-0.39979-0.44421 0.088842-0.26653 0.26653-0.39979 0.5597-0.39979 0.088842-8.89e-4 0.088842-8.89e-4 0.17768-0.0027 0.088842 4.44e-4 0.088842 4.44e-4 0.17768 8.88e-4 0.088842-0.0013 0.088842-0.0013 0.17768-0.0022 0.22211-0.0018 0.39979-0.0022 0.61301-0.0027 0.13326-8.88e-4 0.26653-0.0022 0.39979-0.0031 0.31095-0.0027 0.61301-0.0044 0.91952-0.0044 0.13326-4.44e-4 0.2221-0.0036 0.35537-0.0089z" fill="#02202f"/>
   <path d="m8.6639 12.512c0.044421-8.88e-4 0.13326-0.0022 0.17768-0.0031 0.31095-0.0031 0.59524-0.0044 0.89286-0.0089 0.17768-8.88e-4 0.31095-0.0031 0.47086-0.0044 0.22211-0.0036 0.4531-0.0044 0.67964-0.0044 0.08884-0.0022 0.08884-0.0022 0.2221-0.0044 0.44421 8.89e-4 0.79514 0.03554 0.79514 0.56859-0.26653 0.39979-0.82623 0.26653-1.2527 0.26653-0.04442-4.44e-4 -0.13326-8.89e-4 -0.17768-0.0018-0.13326-8.89e-4 -0.26653-0.0027-0.39979-4e-3 -0.13326-0.0013-0.26653-0.0027-0.39979-0.0031-0.22211-4.44e-4 -0.39979-0.0027-0.60857-0.0044-0.044421 0-0.13326 4.44e-4 -0.17768 4.44e-4 -0.69297-0.01334-0.69297-0.01334-0.76848-0.3998 0.088842-0.35537 0.26653-0.39979 0.60413-0.39979z" fill="#021c2d"/>
   <path d="m3.5874 22.003c0.45309 0.26653 0.31095 1.0928 0.31095 1.5459-8.884e-4 0.2221 0.00888 0.47086 0.017768 0.70629 0.026653 1.3104 0.026653 1.3104-0.54638 1.3548-0.74183-0.04442-0.57303-1.0528-0.5597-1.5903 0.00444-0.2221 8.885e-4 -0.47086-4e-3 -0.7063-0.00355-1.4615-0.00355-1.4615 0.76848-1.3104z" fill="#0b1f27"/>
   <path d="m8.639 15.469c0.044421-8.88e-4 0.13326-0.0013 0.22211-0.0022 0.088842 4.45e-4 0.13326 8.89e-4 0.22211 0.0013 0.088842 0 0.13326-4.44e-4 0.22211-4.44e-4 0.13326-4.44e-4 0.31095 0 0.46198 8.89e-4 0.22211 0.0013 0.4753 0 0.71074-0.0013 0.13326 0 0.31095 4.44e-4 0.44865 8.88e-4 0.08884-4.44e-4 0.13326-8.88e-4 0.2221-0.0013 0.04442 4.44e-4 0.13326 0.0013 0.2221 0.0022 0.04442 0 0.13326 0 0.17768 4.44e-4 0.2221 0.04442 0.35537 0.17768 0.39979 0.39979-0.04442 0.31095-0.31095 0.39979-0.63078 0.39979-0.04442 8.89e-4 -0.13326 0.0013-0.2221 0.0022-0.08884-4.44e-4 -0.13326-8.88e-4 -0.2221-0.0013-0.08884 0-0.08884 0-0.2221 4.44e-4 -0.13326 0-0.31095 0-0.46198-0.0013-0.22211-8.88e-4 -0.47086 0-0.71074 0.0018-0.13326-4.44e-4 -0.31095-4.44e-4 -0.44865-8.88e-4 -0.088842 4.44e-4 -0.088842 4.44e-4 -0.22211 0.0013-0.044421-8.88e-4 -0.13326-0.0013-0.17768-0.0022-0.044421 0-0.13326-4.44e-4 -0.17768-4.44e-4 -0.22211-0.04443-0.35537-0.17769-0.39979-0.3998 0.088842-0.31095 0.26653-0.39979 0.59968-0.39979z" fill="#03202f"/>
   <path d="m16.891 13.282c0.35537 0.26653 0.26653 0.82179 0.26653 1.2482-4e-3 0.17768 0 0.39979 0.0044 0.56859 4e-3 1.0128 4e-3 1.0128-0.47975 1.0972-0.61301-0.08884-0.48863-0.79069-0.4753-1.2838 4e-3 -0.17768 0-0.39979-0.0044-0.56859-0.0044-1.1816-0.0044-1.1816 0.68853-1.0617z" fill="#102328"/>
   <path d="m3.6918 13.41c0.035537 0.35537 0.044421 0.74627 0.044421 1.1194 0.00444 0.13326 0.013326 0.26653 0.02221 0.39979 0.088842 1.1994 0.088842 1.1994-0.44421 1.2838-0.63966-0.08884-0.51973-0.74627-0.50196-1.2616 0.00444-0.17768 0.00222-0.35537-0.00178-0.5597-8.884e-4 -0.99503-8.884e-4 -0.99503 0.46198-1.0217 0.13326 0.01333 0.26653 0.04442 0.39979 0.04442z" fill="#071c24"/>
   <path d="m15.33 19.362c0.13326 0.13326 0.08884 0.69297 0.08884 0.90619 0.0044 0.08884 0.0089 0.17768 0.01777 0.31095 0.08884 0.89286 0.08884 0.89286-0.44421 0.95061-0.53305-0.0013-0.74183-0.17768-0.7596-0.72406 4.45e-4 -0.08884 0.0031-0.17768 0.0089-0.26653 0.0044-0.13326 8.89e-4 -0.26653-0.0044-0.44421-0.0035-0.77293 0.35537-0.844 1.0617-0.71074z" fill="#061c24"/>
   <path d="m5.6019 19.407c0.13326 0.26653 0.13326 0.53305 0.13326 0.83067-0.00444 0.13326 0 0.26653 0.00444 0.44421 0.00311 0.47975-0.044421 0.79514-0.59524 0.844-0.4753 0.0022-0.58192-0.2221-0.59524-0.66632 4.442e-4 -0.08884 0.00267-0.17768 0.00888-0.26653 0.00444-0.13326 0-0.31095-0.00444-0.44421-0.00444-0.70629 0.39979-1.0217 1.0617-0.71074z" fill="#0c1f24"/>
   <path d="m5.0107 13.36c0.22211 0.13326 0.17768 0.2221 0.17768 0.49307 0.00444 0.08884 0.00888 0.17768 0.017768 0.26653 0.013326 0.22211 0.02221 0.4753 0.026653 0.71518 0.00311 0.08884 0.00888 0.2221 0.013326 0.31095 0.044421 0.96838 0.044421 0.96838-0.39979 1.0572-0.59524-0.08884-0.46198-0.80402-0.44865-1.2704 0.00444-0.17768 8.884e-4 -0.39979-0.00311-0.57303-0.00178-1.0928-0.00178-1.0928 0.61301-0.97726z" fill="#0b1d25"/>
   <path d="m15.312 13.282c0.35537 0.26653 0.26653 0.83512 0.2221 1.2482-0.0036 0.17768 0 0.39979 0.0044 0.56859 0.0036 1.0128 0.0036 1.0128-0.44421 1.0972-0.56414-0.13326-0.44421-0.83512-0.39979-1.2838 0.0036-0.17768 0-0.39979-0.0044-0.56859-4e-3 -1.1816-4e-3 -1.1816 0.60413-1.0617z" fill="#0a1e28"/>
   <path d="m16.861 19.31c0.39979 0.17768 0.31095 0.57303 0.31095 0.95505-0.0044 0.13326 0 0.31095 0.0044 0.44421 0.0027 0.47086-0.01333 0.77293-0.56415 0.80846-0.58192-0.04442-0.58192-0.49752-0.5597-0.98615 0.0044-0.13326 0-0.26653-0.0044-0.44421-4e-3 -0.61301 0.17768-0.86177 0.80846-0.79069z" fill="#0e2128"/>
   <path d="m3.5874 19.312c0.35537 0.17768 0.31095 0.56415 0.31095 0.9284-8.884e-4 0.13326 0.00888 0.26653 0.017768 0.44421 0.013326 0.48419-0.00888 0.7596-0.54638 0.81735-0.5908-0.02665-0.57747-0.4753-0.5597-0.95949 0.00444-0.13326 8.885e-4 -0.26653-4e-3 -0.44421-0.00222-0.58636 0.13326-0.86621 0.76848-0.79069z" fill="#091d25"/>
   <path d="m3.5213 10.605c0.35537 0.17768 0.26653 0.58192 0.26653 0.93284-4e-3 0.13326 4.443e-4 0.26653 0.00444 0.44421 0.00311 0.44421 0.00444 0.75516-0.51084 0.79069-0.55082-0.08884-0.51084-0.49307-0.47975-0.96394 0.00888-0.13326 0.00888-0.26653 0.00444-0.39979 0.00888-0.53305 0.088842-0.84844 0.70629-0.77293z" fill="#081c24"/>
   <path d="m16.88 10.653c0.35537 0.17768 0.31095 0.54194 0.26653 0.88842-0.0044 0.13326-8.88e-4 0.26653 0.0036 0.39979 0.0013 0.44421-0.0018 0.71962-0.47975 0.77737-0.52861-0.04442-0.50196-0.46642-0.49752-0.91507 4.44e-4 -0.13326-0.0089-0.26653-0.01777-0.39979-0.01777-0.5597 0.08884-0.82623 0.71074-0.75516z" fill="#08202a"/>
   <path d="m15.3 10.643c0.31095 0.17768 0.26653 0.5597 0.26653 0.90175-4.44e-4 0.13326 0.0044 0.26653 0.01333 0.39979 0.02221 0.71518 0.02221 0.71518-0.44421 0.77737-0.51973-0.08884-0.4753-0.50196-0.47086-0.93728 8.88e-4 -0.13326-0.0044-0.26653-0.01333-0.39979-0.01333-0.51084 0.03554-0.84844 0.62634-0.73295z" fill="#0c1d28"/>
   <path d="m9.6691 5.4469c0.088842-4.442e-4 0.088842-4.442e-4 0.13326-4.442e-4 0.044421 4.442e-4 0.088842 8.884e-4 0.17768 8.884e-4 0.044421 0 0.088842-4.442e-4 0.17768-8.884e-4 0.04442 0 0.08884 4.442e-4 0.13326 4.442e-4 0.08884 0 0.08884 0 0.13326 4.442e-4 0.31095 0.031095 0.26653 0.22211 0.26653 0.4753 4.44e-4 0.088842 4.44e-4 0.13326 8.89e-4 0.22211-0.03998 0.35537-0.39979 0.26653-0.68408 0.26653-0.088842 0.00133-0.088842 0.00133-0.13326 0.00222-0.50196 4.442e-4 -0.50196 4.442e-4 -0.53305-0.31095 8.884e-4 -0.044421 0.00178-0.13326 0.00222-0.17768 4.443e-4 -0.044421 4.443e-4 -0.13326 8.885e-4 -0.17768 0.022211-0.26653 0.13326-0.26653 0.35537-0.26653z" fill="#f6f5ef"/>
   <path d="m5.0058 10.607c0.31095 0.17768 0.26653 0.58192 0.22211 0.91063-4e-3 0.13326-8.885e-4 0.26653 0.00267 0.39979 0.00178 0.73739 0.00178 0.73739-0.39979 0.79958-0.47975-0.08884-0.39979-0.54194-0.39979-0.93728 0-0.13326-0.00888-0.26653-0.013326-0.39979-0.013326-0.47975 0.00888-0.85733 0.58636-0.77293z" fill="#091823"/>
   <path d="m16.83 22.057c0.39979 0.2221 0.26653 0.74627 0.17768 1.1239-0.04442 0-0.04442 0-0.08884-0.2221-0.08884 0.01333-0.13326 0.0311-0.22211 0.04442h-0.26653c-0.2221 0.31095-0.17768 0.74183-0.2221 1.1194-0.0044 0.08884-0.01333 0.2221-0.02221 0.31095-0.08884 0.59524-0.08884 0.59524 0.2221 0.98615 0.2221-8.89e-4 0.39979-0.02665 0.61745-0.04442 0 0.13326-0.35537 0.08884-0.39979 0.13326-0.49752-0.0036-0.51528-0.2221-0.51973-0.66187 0.0031-0.13326 0.0089-0.31095 0.01777-0.45309 0.0018-0.08884 0.0036-0.17768 0.0044-0.31095 0.0027-0.17768 0.0089-0.39979 0.01777-0.58636 0.0089-0.17768 0.0044-0.39979-0.0044-0.5908-0.0022-0.04442-4e-3 -0.08884-0.0044-0.13326-0.0044-0.08884-0.0089-0.17769-0.01777-0.26653-0.01777-0.44865 0.31095-0.45754 0.69297-0.39979z" fill="#0b2128"/>
   <path d="m10.622 25.315c-0.026652 0.49307-0.31095 0.51084-0.75072 0.50196-0.26653-0.031094-0.35537-0.13326-0.39979-0.39979 0.088842-0.6441 0.88398-0.58636 1.1372-0.088842z" fill="#f4f4eb"/>
   <path d="m9.3489 10.782c0.044421-4.45e-4 0.13326-4.45e-4 0.17768-4.45e-4 0.13326-4.44e-4 0.26653-4.44e-4 0.39979-4.44e-4 0.17768 0 0.39979-8.88e-4 0.5908-0.0018 0.13326 0 0.26653-4.44e-4 0.35537-4.44e-4 0.08884-4.44e-4 0.08884-4.44e-4 0.17768-8.88e-4 0.04442 0 0.08884 4.44e-4 0.17768 4.44e-4h0.13326c0.26653 0.02221 0.35537 0.03998 0.49307 0.26653-0.0311-0.02221-0.04442-0.04442-0.08884-0.04442-0.13326-0.08884-0.26653-0.08884-0.44421-0.08884-0.04442-4.44e-4 -0.13326-4.44e-4 -0.17768-4.44e-4 -0.08884 8.88e-4 -0.08884 8.88e-4 -0.17768 0.0013-0.04442 4.44e-4 -0.13326 4.44e-4 -0.17768 4.44e-4 -0.13326 4.44e-4 -0.26653 8.88e-4 -0.39979 0.0018-0.2221 0.0013-0.39979 0.0018-0.63078 0.0022-0.13326 4.44e-4 -0.26653 8.88e-4 -0.39979 0.0013-0.088842 4.44e-4 -0.088842 4.44e-4 -0.17768 4.44e-4 -0.088842 8.89e-4 -0.088842 8.89e-4 -0.17768 0.0013-0.044421 4.44e-4 -0.088842 8.89e-4 -0.17768 8.89e-4 -0.31095 0.01333-0.4753 0.02665-0.68408 0.26653-0.013326 0.01333-0.031095 0.0311-0.044421 0.04442-0.044421 0.31095 0.13326 0.46642 0.44421 0.51528 0.044421-8.89e-4 0.13326-0.0018 0.17768-0.0027 0.044421-4.45e-4 0.13326-0.0013 0.17768-0.0018 0.088842-0.0022 0.088842-0.0022 0.22211-0.0044 0.088842-8.89e-4 0.13326-0.0018 0.22211-0.0027 0.13326-0.0027 0.31095-0.0044 0.45754-0.0089 0.22211-0.0044 0.46642-0.0089 0.70185-0.01333 0.13326-0.0027 0.31095-0.0044 0.44421-0.0089 0.08884-0.0013 0.13326-0.0022 0.2221-0.0031 0.04442-0.0018 0.13326-0.0031 0.17768-0.0044 0.08884-0.0018 0.08884-0.0018 0.17768-0.0035 0.17768-0.02221 0.2221-0.04442 0.35537-0.13326-0.13326 0.26653-0.26653 0.22211-0.55526 0.22211-0.08884 0.0013-0.17768 0.0027-0.2221 0.0044-0.04442 8.88e-4 -0.04442 8.88e-4 -0.13326 0.0018-0.6441 0.0089-1.2882 0.02665-1.9323 0.08884-0.26653 0.02665-0.49752 0.02665-0.75072-0.01777v-0.08884c-0.044421-0.01333-0.13326-0.0311-0.17768-0.04442-0.13326-0.22211-0.17768-0.39979-0.13326-0.66632 0.044421-0.01333 0.13326-0.03109 0.17768-0.04442 0.031095-0.03109 0.044421-0.04442 0.088842-0.08884 0.31095-0.2221 0.76404-0.13326 1.115-0.13326z" fill="#e98457"/>
   <path d="m11.499 15.306c0.39979 0.02221 0.44421 0.17768 0.47086 0.55526-0.03998 0.35537-0.31095 0.47975-0.65299 0.5064-0.04442 4e-3 -0.08884 0.0089-0.13326 0.01333-0.17768 4e-3 -0.35537-0.01333-0.56415-0.02665-0.35537-0.02665-0.73295-0.0311-1.0972-0.03998-0.044421-0.0018-0.13326-0.0036-0.17768-0.0044-0.088842-0.0022-0.088842-0.0022-0.17768-4e-3 -0.13326-0.0089-0.13326-0.0089-0.13326-0.04442 0.17768-0.0044 0.35537-0.0089 0.55526-0.0089 0.13326-0.0013 0.22211-0.0022 0.35537-0.0036 0.17768-0.0013 0.35537-0.0027 0.55526-0.0031 0.17768-8.89e-4 0.35537-0.0027 0.53305-0.0044h0.17768c0.04442-4.44e-4 0.08884-0.0013 0.17768-0.0022 0.04442 0 0.08884-4.44e-4 0.13326-8.89e-4 0.31095-0.04443 0.39979-0.22212 0.35537-0.51085-0.13326-0.17768-0.26653-0.2221-0.50196-0.2221-0.04442-8.89e-4 -0.13326-0.0018-0.2221-0.0027-0.08884 4.45e-4 -0.13326 4.45e-4 -0.2221 4.45e-4 -0.08884-4.45e-4 -0.08884-4.45e-4 -0.22211-0.0013-0.13326-4.44e-4 -0.31095-4.44e-4 -0.46198 0-0.2221 4.44e-4 -0.47531-0.0018-0.71074-4e-3 -0.13326-4.42e-4 -0.31095-4.42e-4 -0.45309-4.42e-4 -0.088842-8.89e-4 -0.088842-8.89e-4 -0.22211-0.0022-0.044421 4.44e-4 -0.13326 8.88e-4 -0.22211 0.0018-0.088842-4.45e-4 -0.088842-4.45e-4 -0.17768-4.45e-4 -0.31095 0.04442-0.35537 0.22211-0.35537 0.51973 0.088842 0.13326 0.088842 0.13326 0.17768 0.22211-0.26653-0.13326-0.35537-0.26653-0.31095-0.57747 0.17768-0.17768 0.31095-0.2221 0.57303-0.2221 0.044421-8.88e-4 0.088842-0.0013 0.17768-0.0022 0.044421-4.44e-4 0.13326-8.88e-4 0.17768-8.88e-4 0.088842-0.0013 0.088842-0.0013 0.17768-0.0027 0.17768-0.0022 0.39979-4e-3 0.56859-0.0044 0.17768-0.0018 0.39979-4e-3 0.56859-0.0044 0.13326-0.0013 0.2221-0.0027 0.35537-0.0035 0.35537-4e-3 0.66632-0.08884 0.96394-0.13326z" fill="#e5794b"/>
   <path d="m8.9722 10.87c0.044421-8.88e-4 0.13326-0.0013 0.17768-0.0018 0.088842-4.44e-4 0.088842-4.44e-4 0.17768-8.88e-4 0.044421-4.44e-4 0.13326-8.88e-4 0.17768-0.0013 0.13326-4.44e-4 0.26653-8.88e-4 0.39979-0.0013 0.2221-8.88e-4 0.39979-0.0027 0.63078-0.0044 0.13326-4.44e-4 0.26653-8.88e-4 0.39979-0.0013 0.04442-4.44e-4 0.13326-0.0013 0.17768-0.0022 0.08884 0 0.08884 0 0.17768 4.44e-4 0.04442-4.44e-4 0.08884-4.44e-4 0.17768-8.88e-4 0.35537 0.04442 0.44421 0.26653 0.39979 0.59968-0.13326 0.2221-0.13326 0.2221-0.26653 0.2221 0.04442-0.13326 0.04442-0.13326 0.13326-0.13326 0.08884-0.26653 0.08884-0.26653-0.08884-0.44421v-0.13326c-0.13326-0.01777-0.13326-0.01777-0.26653-0.01333-0.08884 4.45e-4 -0.08884 4.45e-4 -0.17768 8.89e-4 -0.04442 0.0013-0.13326 0.0022-0.17768 0.0036-0.04442 4.44e-4 -0.13326 0.0013-0.17768 0.0022-0.13326 0.0018-0.26653 4e-3 -0.39979 0.0044-0.2221 0.0035-0.39979 0.0044-0.62634 0.0089-0.13326 0.0018-0.26653 4e-3 -0.39979 0.0044-0.088842 4.44e-4 -0.088842 4.44e-4 -0.17768 0.0013-0.088842 0.0018-0.088842 0.0018-0.17768 4e-3 -0.044421 8.88e-4 -0.088842 0.0013-0.17768 0.0022-0.13326 0.01333-0.13326 0.01333-0.088842 0.2221 0.031095 0.01333 0.044421 0.0311 0.088842 0.04442-0.031095 0.0311-0.044421 0.04442-0.088842 0.08884v0.08884c-0.088842 0-0.088842 0-0.13326-0.13326-0.013326 0.0311-0.031095 0.04442-0.044421 0.08884-0.17768 0-0.17768 0-0.17768-0.08884-0.17768-0.03554-0.17768-0.03554-0.31095 0 0.017768 0.17768 0.017768 0.17768 0.088842 0.35537-0.22211-0.17768-0.26653-0.26652-0.088842-0.52416 0.22211-0.26653 0.51528-0.22211 0.844-0.22211z" fill="#0d171f"/>
   <path d="m11.142 9.9418c0.04442-4.442e-4 0.08884-8.884e-4 0.17768-0.00133 0.08884-8.884e-4 0.2221-0.00178 0.31095-0.00355 0.35537-0.00178 0.35537-0.00178 0.44421 0.088842-0.04442 4.44e-4 -0.08884 4.44e-4 -0.13326 4.44e-4 -0.44865 0.0018-0.8973 0.0044-1.3415 0.0089-0.2221 0.0018-0.46198 0.0031-0.68853 4e-3 -0.22211 8.89e-4 -0.44421 0.0022-0.66632 0.0044-0.088842 4.44e-4 -0.17768 8.89e-4 -0.26653 8.89e-4 -0.83067 8.88e-4 -1.7191 0.13326-1.728 1.1638 4.442e-4 0.04442 8.884e-4 0.08884 0.00133 0.13326 0 0.04442-4.443e-4 0.08884-8.885e-4 0.17768-4.442e-4 0.17768 4.442e-4 0.35537 0.00133 0.51084 0 0.13326-4.442e-4 0.22211-4.442e-4 0.35537 0 0.26653 4.442e-4 0.49752 0.00178 0.74627 0.00133 0.31095 0.00133 0.63966 4.442e-4 0.95505-4.442e-4 0.26653 0 0.49307 4.442e-4 0.73739 4.443e-4 0.13326 4.443e-4 0.2221 0 0.35537-4.442e-4 0.17768 4.443e-4 0.31095 0.00178 0.49307 0 0.04442-4.442e-4 0.08884-8.884e-4 0.13326 4e-3 0.31095 0.088842 0.51084 0.22211 0.78625-0.02221 0.04442-0.02221 0.04442-0.044421 0.08884-0.22211-0.31095-0.22211-0.56859-0.22211-0.94617-8.884e-4 -0.08884-8.884e-4 -0.08884-0.00222-0.17768-0.00222-0.17768-4e-3 -0.35537-0.00444-0.51528-4.442e-4 -0.04442-0.00133-0.13326-0.00178-0.17768-0.00355-0.31095-0.00888-0.62189-0.00888-0.93284-0.00311-0.31095-0.00888-0.6441-0.013326-0.96394-0.00355-0.26653-0.00444-0.49307-0.00888-0.74183-0.00133-0.13326-0.00266-0.2221-0.00444-0.35537-0.00266-0.17768-4e-3 -0.31095-0.00444-0.49752-8.884e-4 -0.04442-0.00222-0.08884-0.00311-0.13326-0.00133-0.83067 0.60857-1.2971 1.4037-1.3104 0.044421 4.443e-4 0.088842 8.885e-4 0.17768 0.00133 0.088842-8.884e-4 0.088842-8.884e-4 0.17768-0.00178 0.17768-0.00178 0.35537-0.00133 0.55082-0.00133 0.13326-8.884e-4 0.22211-0.00178 0.35537-0.00267 0.31095-0.00222 0.5908-0.00267 0.88398-0.00267 0.17768 0 0.35537-0.00178 0.51528-0.00355z" fill="#e27d59"/>
   <path d="m7.1567 10.656c0.044421 0.08884 0.044421 0.08884 0 0.2221-0.00355 0.17768-0.00444 0.35537-0.00355 0.50196v0.17768c8.884e-4 0.17768 0.00178 0.35537 0.00266 0.51528 4.442e-4 0.04442 4.442e-4 0.13326 8.884e-4 0.17768 0.00178 0.31095 0.00355 0.62189 0.00444 0.93284 0.00222 0.31095 0.00355 0.63966 0.00444 0.9595 8.884e-4 0.26653 0.00267 0.49307 0.00444 0.74183 8.884e-4 0.13326 0.00133 0.2221 0.00133 0.35537 4.442e-4 0.17768 0.00178 0.31095 0.00355 0.49752-4.442e-4 0.04442-4.442e-4 0.08884-4.442e-4 0.13326 0.00888 0.48863 0.17768 0.83956 0.57747 1.1105 0.035537 0.02665 0.088842 0.04442 0.13326 0.08884-0.17768 0.08884-0.39979-0.01333-0.48863-0.17768v-0.13326h-0.088842c-0.2221-0.39979-0.26653-0.63966-0.26653-1.0794 0-0.04442 4.442e-4 -0.08884 8.884e-4 -0.17768 8.884e-4 -0.17768 0.00222-0.35537 0.00355-0.51528 8.884e-4 -0.13326 0.00178-0.2221 0.00267-0.35537 0.00178-0.26653 0.00355-0.49752 0.00444-0.75072 0.00266-0.31095 0.00444-0.63966 0.00888-0.95949 0.00133-0.26653 0.00355-0.49307 0.00444-0.73739 8.884e-4 -0.13326 0.00178-0.2221 0.00222-0.35537 8.884e-4 -0.17768 0.00267-0.31095 4e-3 -0.49307 4.442e-4 -0.04442 4.442e-4 -0.08884 8.884e-4 -0.13326 0.00222-0.22211 0.00888-0.35537 0.088842-0.5375z" fill="#3c241c"/>
   <path d="m3.8251 22.027c0.044421 0.13326 0.044421 0.26653 0.044421 0.39979 4.443e-4 0.04442 4.443e-4 0.13326 8.885e-4 0.17768v0.2221c4.442e-4 0.08884 4.442e-4 0.13326 4.442e-4 0.22211 4.442e-4 0.13326 4.442e-4 0.31095 4.442e-4 0.45754 0 0.2221 8.884e-4 0.46642 0.00178 0.70185 0 0.13326 0 0.31095 4.442e-4 0.44421 0 0.08884 4.442e-4 0.13326 8.885e-4 0.22211-4.443e-4 0.04442-4.443e-4 0.13326-4.443e-4 0.17768v0.17768c-0.00888 0.13326-0.00888 0.13326-0.088842 0.13326-0.00444-0.13326-0.00444-0.13326 0.00355-0.31095 0.00267-0.04442 0.00444-0.13326 0.00888-0.17768 0.00311-0.08884 0.00444-0.13326 0.00888-0.22211 4e-3 -0.13326 0.00888-0.31095 0.013326-0.44421 0.00444-0.2221 0.013326-0.46198 0.026653-0.69297 0.13326-0.99947 0.13326-0.99947-0.47975-1.5681-0.76848 0.13326-0.50196 1.226-0.47086 1.8213 0.00444 0.17768 0.00888 0.31095 0.013326 0.47086 0.00888 0.35537 0.02221 0.68408 0.035537 1.0306 0 0.03998 0 0.08884 4.443e-4 0.13326-0.13326 0-0.088842-1.2616-0.088842-1.4215-4e-3 -0.17768-0.00888-0.31095-0.017768-0.48419-0.044421-1.5236-0.044421-1.5236 0.48419-1.5547 0.17768 0.02221 0.35537 0.08884 0.51084 0.08884z" fill="#e3e5e0"/>
   <path d="m11.776 14.032c-0.01333 0.0311-0.03109 0.04442-0.04442 0.08884-0.04442-0.03109-0.08884-0.04442-0.13326-0.08884-0.13326-0.01333-0.13326-0.01333-0.31095-0.0089-0.04442 0-0.13326 4.44e-4 -0.17768 4.44e-4 -0.08884 4.44e-4 -0.13326 8.89e-4 -0.2221 0.0018-0.08884 4.44e-4 -0.08884 4.44e-4 -0.22211 0.0013-0.13326 0.0013-0.31095 0.0027-0.45754 0.0044-0.22211 0.0022-0.47086 0.0027-0.70185 0.0031-0.13326 0.0013-0.31095 0.0031-0.44421 0.0044-0.088842 0-0.13326 0-0.22211-4.44e-4 -0.044421 0.0013-0.13326 0.0027-0.17768 0.0036-0.088842 8.88e-4 -0.088842 8.88e-4 -0.17768 0.0013-0.22211 0.04442-0.35537 0.17768-0.39979 0.44421 0.13326 0.31095 0.35537 0.31095 0.66187 0.35537 0.35537 0.0089 0.35537 0.0089 0.35537 0.04442-0.17768 0.03998-0.39979 0.04442-0.58636 0.08884-0.044421 0.0044-0.13326 0.01333-0.17768 0.01777-0.13326-0.01333-0.13326-0.01333-0.17768-0.2221-0.044421-0.04442-0.088842-0.08884-0.13326-0.13326-0.039979-0.39979 0.035537-0.61745 0.47086-0.69297 0.26653-0.02221 0.48863-0.02221 0.73739-0.01777 0.088842 4.44e-4 0.088842 4.44e-4 0.13326 4.44e-4 0.17768 8.88e-4 0.31095 0.0018 0.48419 0.0027 0.22211 8.88e-4 0.44421 0.0018 0.63966 0.0027 0.04442 4.44e-4 0.08884 8.88e-4 0.13326 8.88e-4 1.0483 0.0036 1.0483 0.0036 1.1416 0.13326z" fill="#e67f4d"/>
   <path d="m11.455 13.981c0.17768 0.0089 0.26653 0.08884 0.35537 0.2221l0.04442 0.04442c0.02665 0.26653-0.03554 0.39979-0.26653 0.53305-0.08884 0.0044-0.2221 0.0089-0.31095 0.0089-0.04442 8.89e-4 -0.13326 0.0018-0.2221 0.0027-0.31095 0.0022-0.60413 0.0044-0.90619 0.0044-0.17768 8.89e-4 -0.31095 0.0022-0.47975 0.0044-0.22211 0.0027-0.45754 4e-3 -0.68853 0.0044-0.088842 0.0018-0.088842 0.0018-0.22211 0.0036-0.088842 0-0.088842 0-0.22211-4.44e-4 -0.044421 4.44e-4 -0.13326 8.88e-4 -0.17768 0.0013-0.22211-0.04442-0.35537-0.17768-0.39979-0.44421 0.088842-0.26653 0.26653-0.39979 0.5597-0.39979 0.088842-8.89e-4 0.088842-8.89e-4 0.17768-0.0027 0.088842 4.44e-4 0.088842 4.44e-4 0.17768 8.88e-4 0.088842-0.0013 0.088842-0.0013 0.17768-0.0022 0.22211-0.0018 0.39979-0.0022 0.61301-0.0027 0.13326-8.88e-4 0.26653-0.0022 0.39979-0.0031 0.31095-0.0027 0.61301-0.0044 0.91952-0.0044 0.13326-4.44e-4 0.2221-0.0036 0.35537-0.0089zm-3.3227 0.58192c0.13326 0.17768 0.26653 0.2221 0.48863 0.2221 0.088842 0.0013 0.088842 0.0013 0.17768 0.0022 0.088842 0 0.13326-4.44e-4 0.22211-4.44e-4 0.088842 4.44e-4 0.088842 4.44e-4 0.22211 8.89e-4 0.13326 0 0.31095 0 0.44421-4.45e-4 0.22211-8.88e-4 0.4531 8.89e-4 0.67964 0.0022 0.13326 4.45e-4 0.26653 0 0.44421 0 0.08884 4.45e-4 0.13326 0.0013 0.2221 0.0018 0.04442-4.44e-4 0.13326-0.0013 0.17768-0.0018h0.17768c0.31095-0.04442 0.39979-0.17768 0.39979-0.47086h-0.08884c-0.02221-0.08884-0.02221-0.08884-0.04442-0.22211-0.13326-0.03554-0.13326-0.03554-0.31095-0.02665-0.04442-8.89e-4 -0.13326-0.0013-0.17768-0.0022-0.08884 8.88e-4 -0.08884 8.88e-4 -0.2221 0.0013-0.08884 0-0.13326-4.44e-4 -0.2221-4.44e-4 -0.13326-4.45e-4 -0.31095 0-0.46198 0.0013-0.2221 8.88e-4 -0.47086 0-0.70629-0.0018-0.13326 4.44e-4 -0.31095 4.44e-4 -0.44865 8.88e-4 -0.088842-4.44e-4 -0.088842-4.44e-4 -0.22211-0.0013-0.044421 8.88e-4 -0.13326 0.0013-0.17768 0.0022-0.088842 4.44e-4 -0.088842 4.44e-4 -0.17768 4.44e-4 -0.26653 0.04442-0.35537 0.26653-0.35537 0.51528z" fill="#270b06"/>
   <path d="m8.639 15.469c0.044421-8.88e-4 0.13326-0.0013 0.22211-0.0022 0.088842 4.45e-4 0.13326 8.89e-4 0.22211 0.0013 0.088842 0 0.13326-4.44e-4 0.22211-4.44e-4 0.13326-4.44e-4 0.31095 0 0.46198 8.89e-4 0.22211 0.0013 0.4753 0 0.71074-0.0013 0.13326 0 0.31095 4.44e-4 0.44865 8.88e-4 0.08884-4.44e-4 0.13326-8.88e-4 0.2221-0.0013 0.04442 4.44e-4 0.13326 0.0013 0.2221 0.0022 0.04442 0 0.13326 0 0.17768 4.44e-4 0.2221 0.04442 0.35537 0.17768 0.39979 0.39979-0.04442 0.31095-0.31095 0.39979-0.63078 0.39979-0.04442 8.89e-4 -0.13326 0.0013-0.2221 0.0022-0.08884-4.44e-4 -0.13326-8.88e-4 -0.2221-0.0013-0.08884 0-0.08884 0-0.2221 4.44e-4 -0.13326 0-0.31095 0-0.46198-0.0013-0.22211-8.88e-4 -0.47086 0-0.71074 0.0018-0.13326-4.44e-4 -0.31095-4.44e-4 -0.44865-8.88e-4 -0.088842 4.44e-4 -0.088842 4.44e-4 -0.22211 0.0013-0.044421-8.88e-4 -0.13326-0.0013-0.17768-0.0022-0.044421 0-0.13326-4.44e-4 -0.17768-4.44e-4 -0.22211-0.04443-0.35537-0.17769-0.39979-0.3998 0.088842-0.31095 0.26653-0.39979 0.59968-0.39979zm-0.5064 0.5597c0.13326 0.17768 0.26653 0.22211 0.48863 0.22211 0.088842 8.88e-4 0.088842 8.88e-4 0.17768 0.0013 0.088842-4.45e-4 0.088842-4.45e-4 0.22211-0.0013h0.22211c0.13326 0 0.31095-4.45e-4 0.44421-0.0013 0.22211-0.0013 0.45309-8.89e-4 0.68408-4.45e-4 0.13326-4.44e-4 0.26653-4.44e-4 0.44421-8.88e-4h0.2221c0.04442-4.47e-4 0.13326-8.91e-4 0.17768-0.0013 0.04442-4.45e-4 0.13326-4.45e-4 0.17768-8.89e-4 0.31095-0.03554 0.39979-0.13326 0.39979-0.46198-0.13326-0.22211-0.13326-0.22211-0.39979-0.22211-0.08884-4.44e-4 -0.13326-0.0013-0.2221-0.0022-0.08884 4.45e-4 -0.08884 4.45e-4 -0.22211 8.89e-4 -0.13326-4.44e-4 -0.13326-4.44e-4 -0.2221-8.89e-4 -0.17768-4.44e-4 -0.31095 0-0.4753 4.45e-4 -0.2221 4.44e-4 -0.48419-8.89e-4 -0.72406-0.0027-0.13326 0-0.31095 0-0.45754 4.44e-4 -0.088842-8.89e-4 -0.088842-8.89e-4 -0.22211-0.0018-0.088842 4.44e-4 -0.13326 8.88e-4 -0.22211 0.0013-0.044421 0-0.13326 4.44e-4 -0.17768 4.44e-4 -0.26653 0.04442-0.31095 0.2221-0.31095 0.47086z" fill="#27120b"/>
   <path d="m8.0007 12.788c0.031095 0.04442 0.044421 0.13326 0.088842 0.17768 0.17768 0.26653 0.26653 0.26653 0.56415 0.26653 0.044421 0.0013 0.13326 0.0027 0.17768 0.0036 0.088842 0.0013 0.13326 0.0022 0.2221 0.0031 0.088842 0.0013 0.13326 0.0022 0.22211 0.0036 0.13326 0.0022 0.31095 0.0044 0.44421 0.0044 0.22211 0.0031 0.44865 0.0089 0.6752 0.01333 0.13326 0.0022 0.26653 0.0044 0.44421 0.0044 0.08884 0.0013 0.13326 0.0027 0.2221 4e-3 0.04442 8.88e-4 0.13326 0.0013 0.17768 0.0022 0.08884 0.0013 0.08884 0.0013 0.17768 0.0027 0.2221-0.01333 0.35537-0.08884 0.54638-0.2221-0.13326 0.31095-0.26653 0.31095-0.59524 0.31095-0.08884 8.88e-4 -0.08884 8.88e-4 -0.17768 0.0018-0.04442 4.44e-4 -0.13326 8.88e-4 -0.17768 0.0013-0.13326 0.0013-0.26653 0.0031-0.39979 0.0044-0.2221 0.0022-0.39979 4e-3 -0.62189 0.0044-0.22211 0.0018-0.39979 4e-3 -0.60413 0.0044-0.044421 4.44e-4 -0.13326 8.88e-4 -0.17768 0.0013-0.044421 4.44e-4 -0.13326 0.0013-0.17768 0.0022-0.044421 4.44e-4 -0.088842 8.88e-4 -0.13326 0.0013-0.13326 0.01333-0.26653 0.04442-0.39979 0.08884-0.13326 0-0.13326 0-0.22211-0.13326-0.039979-0.01333-0.088842-0.0311-0.13326-0.04442-0.17768-0.13326-0.088842-0.31095-0.044421-0.52861z" fill="#d4794f"/>
   <path d="m8.6639 12.512c0.044421-8.88e-4 0.13326-0.0022 0.17768-0.0031 0.31095-0.0031 0.59524-0.0044 0.89286-0.0089 0.17768-8.88e-4 0.31095-0.0031 0.47086-0.0044 0.22211-0.0036 0.4531-0.0044 0.67964-0.0044 0.08884-0.0022 0.08884-0.0022 0.2221-0.0044 0.44421 8.89e-4 0.79514 0.03554 0.79514 0.56859-0.26653 0.39979-0.82623 0.26653-1.2527 0.26653-0.04442-4.44e-4 -0.13326-8.89e-4 -0.17768-0.0018-0.13326-8.89e-4 -0.26653-0.0027-0.39979-4e-3 -0.13326-0.0013-0.26653-0.0027-0.39979-0.0031-0.22211-4.44e-4 -0.39979-0.0027-0.60857-0.0044-0.044421 0-0.13326 4.44e-4 -0.17768 4.44e-4 -0.69297-0.01334-0.69297-0.01334-0.76848-0.3998 0.088842-0.35537 0.26653-0.39979 0.60413-0.39979zm-0.51528 0.35537c0.044421 0.31095 0.26653 0.39979 0.56859 0.39979 0.088842 8.88e-4 0.088842 8.88e-4 0.17768 0.0018 0.088842-8.89e-4 0.088842-8.89e-4 0.22211-0.0018h0.22211c0.13326 0 0.31095-4.44e-4 0.44421-0.0018 0.22211-0.0013 0.45309-8.89e-4 0.68408 0 0.13326 0 0.26653-4.44e-4 0.44421-0.0013 0.08884 4.44e-4 0.13326 4.44e-4 0.2221 8.88e-4 0.04442-8.88e-4 0.13326-0.0013 0.17768-0.0022 0.04442 0 0.13326-4.44e-4 0.17768-8.88e-4 0.26653-0.03998 0.35537-0.13326 0.39979-0.39979-0.2221-0.39979-0.5597-0.35537-0.97282-0.35537-0.08884 4.44e-4 -0.13326 4.44e-4 -0.2221 4.44e-4 -0.13326 4.44e-4 -0.31095 0.0018-0.44421 4e-3 -0.2221 0.0031-0.44421 0.0035-0.67076 4e-3 -0.13326 8.89e-4 -0.26653 0.0018-0.44421 0.0027-0.088842 4.44e-4 -0.088842 4.44e-4 -0.22211 8.89e-4 -0.044421 8.88e-4 -0.13326 0.0022-0.17768 0.0031-0.088842 8.88e-4 -0.088842 8.88e-4 -0.17768 0.0018-0.22211 0.02665-0.39979 0.04442-0.44865 0.31095z" fill="#1b0605"/>
   <path d="m15.122 19.299c0.39979 0.13326 0.26653 0.59968 0.26653 0.96838 8.88e-4 0.08884 0.0018 0.17768 0.0036 0.31095 0.0027 0.13326 0.0036 0.26653 4e-3 0.39979 0.0013 0.04442 0.0022 0.08884 0.0031 0.13326-4.44e-4 0.13326-4.44e-4 0.13326-0.02665 0.31095-0.08884-0.0311-0.13326-0.04442-0.2221-0.08884l0.08884-0.04442c0.01333-0.13326 0.01333-0.13326 0.0089-0.26653-4.44e-4 -0.04442-8.88e-4 -0.13326-0.0013-0.17768-8.89e-4 -0.04442-0.0018-0.13326-0.0031-0.17768-0.0013-0.13326-0.0027-0.2221-4e-3 -0.35537-4.44e-4 -0.04442-0.0013-0.08884-0.0018-0.17768 0.0031-0.13326 0.02221-0.31095 0.04442-0.44865 0.03998-0.2221 0.03998-0.2221-0.08884-0.2221-0.04442 0.0089-0.08884 0.02221-0.17768 0.0311-0.2221 0.04442-0.31095 0.04442-0.52861-0.03998-0.03554 0.13326-0.03554 0.13326-0.03109 0.35537-8.89e-4 0.08884-0.0022 0.13326-0.0031 0.2221 0 0.08884 0 0.13326-4.45e-4 0.2221-0.0013 0.13326-0.0027 0.31095-0.0044 0.4531 0 0.08884-4.44e-4 0.13326-4.44e-4 0.2221-0.0044 0.13326-0.0044 0.13326-0.04442 0.13326-0.26653-1.9501-0.26653-1.9501 0.72406-1.7502z" fill="#262e33"/>
   <path d="m5.6019 19.407c0.13326 0.26653 0.13326 0.53305 0.13326 0.83067-0.00444 0.13326 0 0.26653 0.00444 0.44421 0.00311 0.47975-0.044421 0.79514-0.59524 0.844-0.4753 0.0022-0.58192-0.2221-0.59524-0.66632 4.442e-4 -0.08884 0.00267-0.17768 0.00888-0.26653 0.00444-0.13326 0-0.31095-0.00444-0.44421-0.00444-0.70629 0.39979-1.0217 1.0617-0.71074zm-0.68853 0.03998c-0.39979 0.08884-0.26653 0.50196-0.26653 0.83067 0.00311 0.13326-4.442e-4 0.26653-0.00444 0.39979 4.442e-4 0.44421 0.017768 0.70185 0.51084 0.7596 0.55082-0.04442 0.5064-0.44865 0.47975-0.91063-0.00888-0.13326-0.00888-0.26653-0.00888-0.39979 0.039979-0.46198 0.039979-0.46198-0.26653-0.69297-0.22211 0.02665-0.22211 0.02665-0.46642 0.02665z" fill="#030b11"/>
   <path d="m19.017 18.252c0.0044 0.08884 0.0044 0.17768 0.0044 0.31095 0 0.04442 4.44e-4 0.13326 4.44e-4 0.17768 0 0.08884 0 0.13326-4.44e-4 0.2221 4.44e-4 0.08884 4.44e-4 0.13326 4.44e-4 0.2221 0 0.13326 0 0.31095-4.44e-4 0.4531 0 0.2221 0 0.46198 4.44e-4 0.69741 0 0.13326 0 0.31095-4.44e-4 0.44421 4.44e-4 0.08884 4.44e-4 0.13326 4.44e-4 0.2221 0 0.04442-4.44e-4 0.13326-4.44e-4 0.17768v0.17768c-0.0044 0.13326-0.0044 0.13326-0.04442 0.13326-0.04442-0.39979-0.04442-0.82623-0.04442-1.2438 0.02665-0.2221 0.02665-0.2221-0.04442-0.39979-0.03109 0.04442-0.04442 0.08884-0.08884 0.13326-0.31095-0.04442-0.26653-0.13326-0.26653-0.39979 0.04442-0.01333 0.08884-0.0311 0.13326-0.04442-0.01333-0.0311-0.0311-0.04442-0.04442-0.08884 0.04442 0.0027 0.08884 0.0044 0.13326 0.0089 0.26653-0.08884 0.22211-0.35537 0.17768-0.60857 0.0036-0.55082 0.0036-0.55082 0.04442-0.55082z" fill="#162b34"/>
   <path d="m3.5923 19.321c0.35537 0.17768 0.26653 0.54638 0.22211 0.90619-0.00444 0.13326-0.00444 0.13326-0.00888 0.2221-0.031095 0.58636-0.031095 0.58636-0.088842 0.58636-0.00178-0.13326-4.442e-4 -0.2221 0.00178-0.35537 0-0.08884 0-0.13326 4.443e-4 -0.2221 4.442e-4 -0.13326 0.00267-0.31095 0.00444-0.45309 0.035537-0.39979 0.035537-0.39979-0.26653-0.58192-0.13326 0.0311-0.13326 0.0311-0.22211 0.08884-0.088842 0.01333-0.088842 0.01333-0.13326 0.02665-0.26653 0.13327-0.17768 0.64411-0.17768 0.91952-0.00355 0.08884-0.00444 0.17768-0.00888 0.26653-0.035537 0.39979-0.035537 0.39979 0.17768 0.6219 0.13326-0.02665 0.26653-0.08884 0.39979-0.13326h0.22211c-0.088842 0.26653-0.39979 0.2221-0.62634 0.17768-0.35537-0.13326-0.26653-0.57303-0.26653-0.90175 0.00355-0.13326-0.00133-0.26653-0.00888-0.44421-0.00444-0.59524 0.13326-0.85733 0.76848-0.78181z" fill="#010911"/>
   <path d="m8.0451 11.144c0.044421 0.08884 0.044421 0.08884 0.031095 0.2221 0.031095 0.31095 0.31095 0.39979 0.60857 0.39979 0.044421-4.45e-4 0.13326-8.89e-4 0.17768-0.0013 0.088842-0.0027 0.088842-0.0027 0.22211-0.0044 0.088842-8.89e-4 0.13326-0.0018 0.22211-0.0031 0.13326-0.0022 0.31095-0.0044 0.45754-0.0089 0.22211-0.0044 0.46642-0.0089 0.70185-0.01333 0.13326-0.0022 0.31095-0.0044 0.44421-0.0089 0.08884-8.89e-4 0.13326-0.0018 0.2221-0.0027 0.04442-0.0018 0.13326-0.0036 0.17768-0.0044 0.08884-0.0018 0.08884-0.0018 0.17768-0.0036 0.17768-0.02221 0.22211-0.04442 0.35537-0.13326-0.13326 0.26653-0.26653 0.22211-0.55526 0.22211-0.08884 0.0013-0.17768 0.0027-0.2221 4e-3 -0.04442 0.0013-0.04442 0.0013-0.13326 0.0022-0.6441 0.0089-1.2882 0.02665-1.9323 0.08884-0.26653 0.02665-0.49307 0.02665-0.75072-0.01777v-0.08884c-0.044421-0.01333-0.13326-0.03109-0.17768-0.04442-0.22211-0.3998-0.22211-0.3998-0.044421-0.57749z" fill="#f3996c"/>
   <path d="m19.017 23.094c0.0044 0.13326 0.0044 0.31095 0.0044 0.44421 0 0.04442 0 0.08884 4.44e-4 0.13326 0 0.17768 0 0.31095-4.44e-4 0.46642 0 0.08884 4.44e-4 0.2221 4.44e-4 0.31095 0 0.2221 0 0.45309-4.44e-4 0.67964 0 0.31095 0 0.57747 4.44e-4 0.87065v0.67076c-4.44e-4 0.08884 0 0.2221 0 0.31095 4.45e-4 0.55082-0.0013 1.0928-0.04442 1.6436-0.01333-0.04442-0.03109-0.13326-0.04442-0.17768-0.03109-0.01333-0.04442-0.03109-0.08884-0.04442h0.08884c0.01333-0.13326 0.01333-0.13326 0.0089-0.26653 0-0.04442-4.45e-4 -0.13326-4.45e-4 -0.17768-4.44e-4 -0.04442-8.88e-4 -0.13326-0.0018-0.17768v-0.17768c8.89e-4 -0.31095 8.89e-4 -0.31095-0.04442-0.65299l0.04442-0.08884c0.0022-0.08884 0.0018-0.17768 0-0.31095-0.0036-0.39979 0.01333-0.75516 0.03554-1.1372 0.04442-0.2221 0.04442-0.2221-0.08884-0.39979h0.08884c0.0044-0.13326 0.0022-0.26653-0.0027-0.35537-0.0022-0.08884-0.0044-0.13326-0.0089-0.22211-0.0027-0.08884-0.0044-0.17768-0.0089-0.26653-0.0044-0.17768-0.01333-0.31095-0.01777-0.47975-0.0027-0.08884-0.0044-0.13326-0.0089-0.2221-8.88e-4 -0.39979-8.88e-4 -0.39979 0.08884-0.39979z" fill="#1b2c35"/>
   <path d="m11.332 19.451c0 0.08884-0.39979 0.04442-0.51973 0.04442-0.08884 0.0013-0.2221 0.0027-0.31095 4e-3 -0.17768 0.0018-0.35537 0.0035-0.51973 0.0044-0.17768 0.0013-0.31095 0.0031-0.49752 0.0044-0.088842 0-0.088842 0-0.17768 4.45e-4 -0.26653-0.0044-0.26653-0.0044-0.51528 0.13326h-0.044421c-0.031095 0.17768-0.044421 0.39979-0.044421 0.57747-0.00888 0.04442-0.013326 0.08884-0.02221 0.17768-0.039979 0.31095-0.039979 0.31095 0.17768 0.44421 0.13326-0.0013 0.31095-0.01333 0.44865-0.03554 0 0.13326-0.39979 0.13326-0.50196 0.13326-0.45309-0.08884-0.39979-0.83956-0.35537-1.2127 0.26653-0.80402 2.2477-0.39979 2.914-0.31095z" fill="#040c0e"/>
   <path d="m16.764 22.155c0.17768 0.04442 0.17768 0.04442 0.17768 0.08884-0.44421 0.13326-0.44421 0.13326-0.62189 0.13326-0.02665 0.13326-0.02665 0.13326-0.0311 0.26653-0.0036 0.04442-0.0089 0.13326-0.0089 0.17768-0.01333 0.26653-0.02221 0.54638-0.0311 0.81735-0.0044 0.13326-0.01333 0.26653-0.02221 0.44421-0.08884 0.77737-0.08884 0.77737 0.2221 1.3637 0.2221-8.88e-4 0.39979-0.03109 0.61745-0.08884 0 0.13326-0.35537 0.08884-0.39979 0.13326-0.49752-0.0036-0.51528-0.2221-0.51973-0.66187 0.0031-0.13326 0.0089-0.31095 0.01777-0.45309 0.0022-0.08884 4e-3 -0.17768 0.0044-0.31095 0.0031-0.17768 0.0089-0.39979 0.01777-0.58636 0.0089-0.17768 0.0044-0.39979-0.0031-0.5908-0.0018-0.04442-0.0031-0.08884-0.0044-0.13326-0.0036-0.08884-0.0089-0.17769-0.01777-0.26653-0.01333-0.44421 0.26653-0.39979 0.62189-0.31095z" fill="#0a1013"/>
   <path d="m3.7807 22.161c0.00888 0.08884 0.013326 0.17768 0.017768 0.31095 0.00311 0.04442 0.00444 0.13326 0.00888 0.17768 0.013326 0.31095 0.02221 0.59524 0.026653 0.89286 0.00444 0.17768 0.00888 0.31095 0.017768 0.47086 0.00888 0.2221 0.017768 0.45309 0.022211 0.6752 4e-3 0.08884 0.00888 0.13326 0.013326 0.2221 0.00444 0.47086 0.00444 0.47086-0.22211 0.52417-0.17768-0.0089-0.31095-0.03554-0.47975-0.08884 0.13326-0.08884 0.13326-0.08884 0.31095-0.08884 0.22211-0.08884 0.17768-0.2221 0.17768-0.44421-0.00178-0.13326-0.00178-0.13326-0.00355-0.2221-0.00267-0.08884-0.00444-0.17768-0.00888-0.26653-0.00222-0.08884-4e-3 -0.17768-0.00444-0.26653-0.00311-0.13326-0.00888-0.31095-0.013326-0.46642 0-0.17768 0-0.17768 0.044421-0.17768 0.00888-0.08884 0.00888-0.17768 0.013326-0.26653 0.00178-0.04442 0.00311-0.13326 0.00444-0.17768 0.00133-0.04442 0.00311-0.13326 0.00444-0.17768 0.00311-0.13326 0.00444-0.22211 0.00888-0.35537 0.00178-0.08884 0.00178-0.08884 4e-3 -0.17768 0.00888-0.13326 0.00888-0.13326 0.044421-0.13326z" fill="#162630"/>
   <path d="m17.063 10.745c0.03554 0.26653 0.03998 0.53305 0.04442 0.79514 0.0031 0.08884 0.0089 0.17768 0.01333 0.26653 0.04442 0.75072 0.04442 0.75072-0.2221 0.86621-0.5597 0.02665-0.5597 0.02665-0.63522-0.22211 0.0013-0.17768 0.01777-0.35537 0.04442-0.54194 0.08884 0.17768 0.08884 0.17768 0.04442 0.39979 0.04442 0.31095 0.17768 0.26653 0.47975 0.26653 0.31095-0.13326 0.17768-0.65299 0.17768-0.95061-0.0089-0.17768-0.01333-0.31095-0.01777-0.49752-0.0044-0.13326-0.0044-0.13326-0.01333-0.2221 8.88e-4 -0.17768 8.88e-4 -0.17768 0.08884-0.17768z" fill="#1c2a28"/>
   <path d="m11.432 15.437c0.04442-0.0022 0.08884-0.0044 0.17768-0.0044 0.26653 0.04442 0.35537 0.26652 0.35537 0.55526-0.22211 0.26653-0.31095 0.35537-0.63966 0.39979-0.04442 0.0044-0.08884 0.0089-0.13326 0.01333-0.17768 4e-3 -0.35537-0.01333-0.56415-0.02665-0.35537-0.02665-0.73295-0.03109-1.0972-0.03998-0.044421-0.0018-0.13326-0.0031-0.17768-0.0044-0.088842-0.0018-0.088842-0.0018-0.17768-4e-3 -0.13326-0.0089-0.13326-0.0089-0.13326-0.04442 0.17768-0.0044 0.35537-0.0089 0.55526-0.0089 0.13326-8.88e-4 0.22211-0.0022 0.35537-0.0031 0.17768-0.0018 0.35537-0.0031 0.55526-0.0036 0.17768-8.88e-4 0.35537-0.0027 0.53305-0.0044h0.17768c0.04442-4.44e-4 0.08884-0.0013 0.17768-0.0022 0.04442 0 0.08884-4.44e-4 0.13326-4.44e-4 0.31095-0.04443 0.39979-0.22212 0.35537-0.51085-0.13326-0.26653-0.39979-0.2221-0.66632-0.2221 0-0.08884 0.2221-0.04442 0.26653-0.04442z" fill="#ea8d5c"/>
   <path d="m3.5142 22.205c0 0.04442 0 0.04442-0.13326 0.04442-0.17768 0.0089-0.17768 0.0089-0.26653 0.17768h-0.088842c-0.017768 0.17768-0.026653 0.31095-0.031095 0.46198-0.00222 0.04442-0.00444 0.08884-0.00888 0.13326-0.039979 0.2221-0.039979 0.2221 0.088842 0.39979-0.013326 0.01333-0.031095 0.0311-0.044421 0.04442-0.031095 0.26653-0.044421 0.54638-0.044421 0.82179-0.00444 0.08884-0.013326 0.17768-0.02221 0.26653-0.088842 0.52417-0.088842 0.52417 0.17768 0.87065 0.17768-0.0013 0.35537-0.02221 0.55082-0.04442 0 0.08884-0.31095 0.08884-0.35537 0.08884-0.44421-4e-3 -0.47086-0.13326-0.48419-0.54194 0.00222-0.08884 0.00444-0.13326 0.00444-0.2221 0-0.08884-4.442e-4 -0.13326-8.884e-4 -0.2221 4.442e-4 -0.13326 0.00267-0.31095 0.00444-0.45754 0.00444-0.2221 0.00355-0.47086 0.00133-0.70629 8.884e-4 -0.13326 0.00267-0.31095 0.00444-0.44421-8.884e-4 -0.08884-0.00133-0.13326-0.00222-0.2221 0.017768-0.51084 0.17768-0.59968 0.66187-0.44421z" fill="#050e11"/>
   <path d="m11.212 12.384c0.04442-8.88e-4 0.13326-0.0018 0.17768-0.0027 0.04442-8.88e-4 0.08884-0.0018 0.17768-0.0027 0.13326 0.0089 0.13326 0.0089 0.13326 0.08884 0.04442 0.01333 0.08884 0.0311 0.13326 0.04442 0.13326 0.17768 0.13326 0.31095 0.13326 0.53305-0.04442 0-0.04442 0-0.08884-0.13326-0.08884-0.31094-0.2221-0.35536-0.54638-0.35536-0.08884-0.0022-0.13326-0.0044-0.2221-0.0089-0.08884-0.0013-0.17768-0.0031-0.22211-0.0044-0.04442-8.89e-4 -0.08884-0.0018-0.13326-0.0031-0.39979-0.0089-0.80402-0.01777-1.2038-0.02221-0.13326-0.0022-0.31095-0.0044-0.45754-0.0089-0.044421-4.45e-4 -0.088842-8.89e-4 -0.13326-0.0018-0.31095-0.0044-0.31095-0.0044-0.31095-0.04442 0.17768-0.0089 0.31095-0.01333 0.48863-0.01333 0.088842-0.0013 0.088842-0.0013 0.13326-0.0027 0.088842-0.0018 0.22211-0.0035 0.31095-0.0044 0.17768-0.0027 0.31095-0.0044 0.48863-0.0089 0.26653-0.0044 0.51084-0.0089 0.76404-0.01333 0.13326-0.0018 0.26653-4e-3 0.35537-0.0044z" fill="#ed804e"/>
   <path d="m11.688 15.586c0.2221 0.17768 0.2221 0.17768 0.17768 0.44421-0.17768 0.2221-0.31095 0.26653-0.59968 0.26653-0.08884 0.0013-0.08884 0.0013-0.2221 0.0027-0.08884-4.44e-4 -0.13326-4.44e-4 -0.2221-8.88e-4 -0.08884 4.44e-4 -0.08884 4.44e-4 -0.2221 8.88e-4 -0.13326 4.45e-4 -0.31095 0-0.46198-4.44e-4 -0.2221-8.88e-4 -0.4753 8.89e-4 -0.71074 0.0027-0.13326 0-0.31095 0-0.44865-4.44e-4 -0.088842 8.88e-4 -0.13326 0.0013-0.22211 0.0022-0.044421-8.88e-4 -0.13326-0.0013-0.17768-0.0022h-0.17768c-0.22211-0.04443-0.26653-0.13327-0.35537-0.31096 0.17768 0.08884 0.17768 0.08884 0.26653 0.17768 0.13326 0.01333 0.13326 0.01333 0.31095 0.01333 0.088842 4.45e-4 0.088842 4.45e-4 0.17768 8.89e-4 0.088842-4.44e-4 0.13326-4.44e-4 0.22211-8.89e-4 0.088842 4.45e-4 0.088842 4.45e-4 0.22211 4.45e-4 0.13326 0 0.31095 0 0.44865-4.45e-4 0.22211-4.44e-4 0.45754 0 0.68853 4.45e-4 0.13326 0 0.31095 0 0.44421-4.45e-4 0.08884 4.45e-4 0.13326 4.45e-4 0.2221 8.89e-4 0.04442-4.44e-4 0.13326-8.89e-4 0.17768-8.89e-4 0.08884-4.44e-4 0.08884-4.44e-4 0.17768-4.44e-4 0.31095-0.02221 0.35537-0.13326 0.35537-0.39979-0.02221-0.08884-0.02221-0.08884-0.04442-0.17768z" fill="#220504"/>
   <path d="m11.865 11.055c0.2221 0.08884 0.17768 0.26653 0.17768 0.48863h-0.08884c-0.0311 0.04442-0.04442 0.13326-0.08884 0.17768-0.26653 0.26653-0.74183 0.17768-1.115 0.17768-0.08884-0.0013-0.13326-0.0031-0.22211-0.0044-0.08884-0.0018-0.13326-0.0035-0.2221-0.0044-0.04442-0.0013-0.13326-0.0031-0.17768-0.0044-0.13326-0.01333-0.13326-0.01333-0.31095-0.08884 0.044421-8.89e-4 0.13326-0.0018 0.17768-0.0027 0.2221-0.0031 0.39979-0.0089 0.62189-0.01333 0.08884-0.0013 0.17768-0.0031 0.26653-0.0044 0.13326-0.0018 0.26653-0.0044 0.39979-0.0089 0.08884-0.0013 0.13326-0.0027 0.2221-4e-3 0.35537-0.02665 0.35537-0.17768 0.35537-0.49307 0.0018-0.04442 0.0036-0.13326 0.0044-0.17768z" fill="#f47c40"/>
   <path d="m8.9366 10.87c0.044421-8.88e-4 0.13326-0.0013 0.17768-0.0018 0.088842-4.44e-4 0.088842-4.44e-4 0.17768-8.88e-4 0.088842-8.88e-4 0.088842-8.88e-4 0.17768-0.0013 0.13326-4.44e-4 0.26653-8.88e-4 0.39979-0.0013 0.22211-8.88e-4 0.44421-0.0027 0.63966-0.0044 0.13326-4.44e-4 0.26653-8.88e-4 0.39979-0.0013 0.08884-8.88e-4 0.08884-8.88e-4 0.17768-0.0022 0.04442 0 0.13326 4.44e-4 0.17768 4.44e-4 0.04442-4.44e-4 0.08884-4.44e-4 0.17768-8.88e-4 0.35537 0.04442 0.44421 0.26653 0.39979 0.59968-0.13326 0.2221-0.13326 0.2221-0.26653 0.2221 0.04442-0.13326 0.04442-0.13326 0.13326-0.13326 0.08884-0.26653 0.08884-0.26653-0.08884-0.44421v-0.13326c-0.13326-0.02221-0.13326-0.02221-0.26653-0.01777-0.04442-8.88e-4 -0.13326-0.0013-0.17768-0.0022-0.04442-4.44e-4 -0.13326-4.44e-4 -0.2221-4.44e-4 -0.08884-8.88e-4 -0.13326-0.0013-0.22211-0.0022-0.2221-0.0022-0.44421-0.0031-0.6441-0.0044-0.2221-0.0013-0.44421-0.0036-0.6441-0.0044-0.13326-0.0013-0.26653-0.0022-0.39979-0.0027-0.088842-8.88e-4 -0.088842-8.88e-4 -0.17768-0.0013-0.044421-4.44e-4 -0.088842-8.88e-4 -0.17768-8.88e-4 -0.31095-0.01777 0.088842-0.04442 0.13326-0.04442z" fill="#2d1006"/>
   <path d="m4.6691 22.161c0.17768 0.08884 0.17768 0.08884 0.22211 0.17768l-0.088842 0.04442c-0.00444 0.17768-0.00444 0.35537-0.00267 0.52861 0.00888 0.52417 0.00888 0.52417-0.039979 0.62634 0.031095 0.01333 0.044421 0.03109 0.088842 0.04442-0.013326 0.04442-0.031095 0.13326-0.044421 0.17768-0.00267 0.13326-0.00267 0.26653-0.00133 0.35537 4.442e-4 0.08884 8.884e-4 0.13326 0.00178 0.2221 0.00133 0.13326 0.00311 0.31095 0.00444 0.45754 4.442e-4 0.08884 8.884e-4 0.13326 0.00133 0.2221 0.00133 0.08884 0.00133 0.08884 0.00222 0.17768-0.00888 0.13326-0.00888 0.13326-0.088842 0.13326-0.013326-0.13326-0.017768-0.31095-0.017768-0.44421-8.884e-4 -0.04442-0.00178-0.08884-0.00267-0.13326-0.00267-0.13326-0.00444-0.31095-0.00888-0.44421-0.00178-0.08884-0.00311-0.17768-0.00444-0.26653-4e-3 -0.2221-0.00888-0.47975-0.00888-0.71962-0.00178-0.13326-0.00444-0.31095-0.00888-0.44865-0.00178-0.08884-0.00311-0.17768-0.00444-0.26653-0.00133-0.04442-0.00267-0.08884-0.00444-0.13326-0.00133-0.13326-0.00133-0.13326 0.017768-0.31095z" fill="#091215"/>
   <path d="m17.063 19.362c0.17768 0.08884 0.08884 0.31095 0.08884 0.49307 4.45e-4 0.04442 4.45e-4 0.08884 8.89e-4 0.13326 4.44e-4 0.08884 8.88e-4 0.17768 8.88e-4 0.26653 0 0.13326 0.0018 0.31095 0.0031 0.44421 4.45e-4 0.08884 4.45e-4 0.17768 8.89e-4 0.26653 4.44e-4 0.04442 8.88e-4 0.08884 0.0018 0.13326-0.0022 0.35537-0.04442 0.35537-0.39979 0.35537-0.17768-0.0089-0.17768-0.0089-0.17768-0.08884 0.08884 0.0089 0.13326 0.01333 0.2221 0.02221 0.31094-0.0311 0.26652-0.17768 0.26652-0.47086-8.88e-4 -0.04442-0.0018-0.08884-0.0027-0.13326-0.0031-0.13326-0.0089-0.31095-0.01333-0.44421-0.0044-0.13326-0.0089-0.31095-0.01333-0.44421-0.0022-0.08884-0.0044-0.17768-0.0089-0.26653-0.0036-0.08884-0.0031-0.2221-0.0013-0.31095z" fill="#eff3ec"/>
   <path d="m17.151 13.321c0.01333 0.13326 0.01777 0.31095 0.01777 0.44865 8.89e-4 0.04442 0.0018 0.08884 0.0031 0.13326 0.0018 0.08884 0.0036 0.17768 0.0044 0.31095 0.0022 0.13326 0.0044 0.31095 0.0089 0.44865 0.0018 0.08884 0.0036 0.17768 0.0044 0.26653 8.89e-4 0.04442 0.0018 0.08884 0.0027 0.13326 4e-3 0.31095-0.0089 0.57747-0.04442 0.87065-0.13326 0-0.08884-0.85733-0.08884-1.0039 0-0.04442-4.44e-4 -0.08884-4.44e-4 -0.13326-4.4e-4 -0.08884-4.4e-4 -0.17768-4.4e-4 -0.31095 0-0.13326-8.89e-4 -0.31095-0.0018-0.44865v-0.26653c-4.45e-4 -0.04442-8.89e-4 -0.08884-8.89e-4 -0.13326 8.89e-4 -0.31095 8.89e-4 -0.31095 0.08884-0.31095z" fill="#f3f5ed"/>
   <path d="m15.552 13.365c0.0089 0.13326 0.01333 0.26653 0.01333 0.39979 8.89e-4 0.03998 0.0018 0.08884 0.0027 0.13326 0.0022 0.08884 4e-3 0.17768 0.0044 0.26653 0.0027 0.13326 0.0044 0.26653 0.0089 0.39979 0.03554 1.5903 0.03554 1.5903-0.2221 1.5992-0.62189-0.01777-0.62189-0.01777-0.62189-0.08884 0.08884 0.02221 0.08884 0.02221 0.17768 0.04442 0.39979 0.08884 0.39979 0.08884 0.63078-0.13326 0.04442-0.39979 0.02665-0.81735 0.0036-1.2216-4e-3 -0.13326-0.0089-0.26653-0.01333-0.39979-0.0089-0.26653-0.01777-0.56415-0.03109-0.844 4.44e-4 -0.08884 4.44e-4 -0.08884 0.04442-0.08884z" fill="#faf7f0"/>
   <path d="m15.375 10.656c0.31095 0.04442 0.26653 0.17768 0.26653 0.46642 0 0.04442-4.45e-4 0.08884-4.45e-4 0.13326-8.88e-4 0.13326-0.0036 0.26653-0.0044 0.39979-8.88e-4 0.08884-0.0013 0.17768-0.0022 0.26653-0.0044 0.72406-0.0044 0.72406-0.2221 0.73295-0.13326-0.0044-0.13326-0.0044-0.13326-0.04442 0.08884 0.0013 0.08884 0.0013 0.13326 0.0027 0.04442-8.88e-4 0.08884-0.0018 0.13326-0.0027-0.01333-0.0311-0.0311-0.04442-0.04442-0.08884-0.0027-0.13326-0.0027-0.26653-8.88e-4 -0.39979 4.44e-4 -0.08884 8.88e-4 -0.17768 0.0013-0.26653 0.0013-0.13326 0.0027-0.26653 4e-3 -0.39979 0.0013-0.13326 0.0022-0.26653 0.0027-0.35537 0.0013-0.13326 0.0013-0.13326 0.0022-0.2221 0.01333-0.17768 0.01333-0.17768-0.08884-0.2221z" fill="#d4d5d4"/>
   <path d="m15.441 22.245c-4.44e-4 0.04442-4.44e-4 0.08884-8.89e-4 0.17768 0 0.08884 0 0.08884 4.45e-4 0.17768-8.89e-4 0.08884-0.0018 0.13326-0.0022 0.2221-4.45e-4 0.08884-4.45e-4 0.13326-4.45e-4 0.2221-4.44e-4 0.13326-0.0013 0.31095-0.0027 0.44421-0.0022 0.2221-0.0027 0.44865-0.0035 0.6752-4.44e-4 0.13326-8.88e-4 0.26653-0.0018 0.44421-4.44e-4 0.08884-8.88e-4 0.13326-8.88e-4 0.22211-8.88e-4 0.04442-0.0013 0.13326-0.0018 0.17768-4.44e-4 0.04442-8.89e-4 0.08884-0.0013 0.17768-0.0044 0.13326-0.0044 0.13326-0.04442 0.13326-4.44e-4 -0.08884 0.0022-0.17768 0.0044-0.26653 0.01333-0.35537 0.02221-0.68408 0.0311-1.0306 4e-3 -0.13326 0.0089-0.31095 0.01333-0.44421 0.0089-0.2221 0.01333-0.44421 0.01777-0.63966 0.0036-0.08884 0.0089-0.13326 0.01333-0.2221 0.01777-0.35537 0.01777-0.35537-0.2221-0.5064-0.17768 4.44e-4 -0.35537 0.01777-0.54638 0.03998 0-0.08884 0.2221-0.08884 0.26653-0.08884 0.04442-0.0089 0.08884-0.01777 0.17768-0.02665 0.17768-0.01333 0.31095 0.0036 0.35537 0.2221z" fill="#fbfbef"/>
   <path d="m8.0007 12.788c0.031095 0.04442 0.044421 0.13326 0.088842 0.17768 0.22211 0.31095 0.48419 0.31095 0.85733 0.35537 0.44421 0.01333 0.44421 0.01333 0.44421 0.04442-0.17768 0.01333-0.35537 0.02221-0.52861 0.02665-0.17768 0.01333-0.31095 0.04442-0.44865 0.08884-0.13326 0-0.13326 0-0.22211-0.13326-0.039979-0.01333-0.088842-0.03109-0.13326-0.04442-0.17768-0.13326-0.088842-0.31095-0.044421-0.52861z" fill="#f79154"/>
   <path d="m5.2021 13.543c0.088842 0 0.088842 0.95949 0.088842 1.1016 0.00444 0.13326 0.013326 0.26653 0.02221 0.35537 0.088842 1.0439 0.088842 1.0439-0.17768 1.186-0.22211 0.0027-0.46642 0.0027-0.6441-0.17768 0.044421 0.01333 0.088842 0.02665 0.13326 0.04442 0.44421 0.08884 0.44421 0.08884 0.61301-0.26653 0.02221-0.35537 0.00178-0.6752-0.017768-1.0084-0.00355-0.13326-0.00888-0.2221-0.00888-0.35537-0.00444-0.2221-0.013326-0.44421-0.026653-0.65743-0.00178-0.08884-4e-3 -0.13326-0.00444-0.2221z" fill="#fbfbf3"/>
   <path d="m4.5803 13.41v0.08884c0.13326 0.0089 0.13326 0.0089 0.26653 0.0031 0.088842-0.0027 0.17768-4e-3 0.26653-0.0031v0.04442c-0.039979-0.0044-0.088842-0.0089-0.13326-0.01333-0.35537-0.04442-0.35537-0.04442-0.48419 0.2221-0.00133 0.08884 0 0.17768 0.00355 0.31095 0 0.04442 0 0.08884-4.442e-4 0.13326 4.442e-4 0.17768 4e-3 0.31095 0.00888 0.49307 8.884e-4 0.13326 0.00178 0.2221 0.00222 0.35537 4.442e-4 0.17768 0.00133 0.31095 0.00444 0.47086 0.00222 0.13326 0.00222 0.2221 0.00178 0.35537-0.088842 0-0.044421-0.44421-0.044421-0.53305 0-0.04442-4.442e-4 -0.08884-4.442e-4 -0.17768 0-0.13326-4.442e-4 -0.2221-4.442e-4 -0.35537 0-0.17768-8.885e-4 -0.35537-0.00178-0.53305v-0.35537c-4.442e-4 -0.04442-8.884e-4 -0.08884-8.884e-4 -0.17768 8.884e-4 -0.35537 8.884e-4 -0.35537 0.088842-0.35537z" fill="#262e31"/>
   <path d="m8.4422 12.406c0.044421 8.89e-4 0.088842 0.0013 0.17768 0.0022 0.088842 0.0036 0.088842 0.0036 0.17768 0.0089 0.088842 0.0018 0.088842 0.0018 0.17768 4e-3 0.17768 4e-3 0.39979 0.0089 0.57747 0.01777 0.13326 0.0031 0.26653 0.0044 0.39979 0.0089 0.22211 0.0044 0.47531 0.01333 0.71074 0.01777 0.08884 0.0022 0.08884 0.0022 0.13326 0.0044 0.08884 0.0089 0.08884 0.0089 0.08884 0.04442-0.17768 0.0044-0.35537 0.0044-0.54638 0.0044-0.13326 4.45e-4 -0.2221 0.0013-0.35537 0.0027-0.17768 8.89e-4 -0.35537 0.0022-0.54194 0.0022-0.17768 0-0.35537 0.0013-0.52417 0.0031-0.044421 0-0.088842-4.44e-4 -0.17768-8.88e-4 -0.39979 0.0044-0.54194 0.08884-0.72406 0.44421-0.022211-0.31095 0.035537-0.56859 0.39979-0.5597z" fill="#c0653e"/>
  </g>
 </g>
</svg>
